<svg xmlns="http://www.w3.org/2000/svg" xmlns:xlink="http://www.w3.org/1999/xlink" viewBox="0 0 1920 1080"><defs><style>.cls-1{isolation:isolate;}.cls-2{fill:url(#radial-gradient);}.cls-3{fill:url(#linear-gradient);}.cls-4{fill:#7a7b7e;}.cls-5{fill:url(#linear-gradient-2);}.cls-6{fill:url(#linear-gradient-3);}.cls-7{fill:url(#linear-gradient-4);}.cls-8{fill:#111;}.cls-9{fill:#212121;}.cls-10,.cls-30{fill:#fff;}.cls-10,.cls-15,.cls-25,.cls-27,.cls-28,.cls-29,.cls-40{stroke:#333;}.cls-10,.cls-15,.cls-22,.cls-25,.cls-26,.cls-27,.cls-28,.cls-29,.cls-34,.cls-38,.cls-40{stroke-miterlimit:10;}.cls-11{fill:#f4a034;}.cls-12{fill:url(#linear-gradient-5);}.cls-13{fill:url(#linear-gradient-6);}.cls-14{fill:url(#linear-gradient-7);}.cls-15,.cls-18{fill:#ccc;}.cls-15{stroke-width:3px;}.cls-16{fill:#141414;}.cls-17,.cls-35{fill:#333;}.cls-19,.cls-27,.cls-35,.cls-47{opacity:0.3;}.cls-20,.cls-26{fill:#73221e;}.cls-21{fill:#161616;}.cls-22{fill:#ba0000;stroke-width:0.58px;}.cls-22,.cls-34,.cls-38{stroke:#2d2d2d;}.cls-23{opacity:0.2;}.cls-24{opacity:0.7;}.cls-25{fill:#e0bfb3;}.cls-26{stroke:#161616;stroke-width:5px;}.cls-28{fill:#c6afa3;}.cls-29{fill:#b2b2b2;}.cls-31{fill:#56100e;}.cls-32{fill:#381613;}.cls-33{fill:#010101;}.cls-34,.cls-36{fill:#ffe9da;}.cls-34{stroke-width:1.04px;}.cls-37{fill:#2d2d2d;}.cls-38{fill:#b25959;stroke-width:0.52px;}.cls-39,.cls-40{fill:#910000;}.cls-41{fill:#515151;}.cls-42{fill:#adadad;}.cls-42,.cls-44,.cls-45,.cls-48,.cls-49,.cls-50{mix-blend-mode:multiply;}.cls-43{fill:#3f3f3f;}.cls-44{fill:#8c0c00;}.cls-45{fill:#b8a997;opacity:0.6;}.cls-46{fill:#ff7858;}.cls-47{fill:#070707;}.cls-48{fill:#dedfe0;}.cls-49{fill:#87898c;}.cls-50{fill:#6b6e70;}.cls-51{fill:#353535;}.cls-52{fill:#262626;}</style><radialGradient id="radial-gradient" cx="960" cy="543" r="532.21" gradientUnits="userSpaceOnUse"><stop offset="0" stop-color="#910000"/><stop offset="1" stop-opacity="0"/></radialGradient><linearGradient id="linear-gradient" x1="-7382.75" y1="8674.87" x2="-7315.62" y2="8572.2" gradientTransform="translate(-5387.67 10245.98) rotate(173.71)" gradientUnits="userSpaceOnUse"><stop offset="0" stop-color="#e8e9ea"/><stop offset="1" stop-color="#7a7b7e"/></linearGradient><linearGradient id="linear-gradient-2" x1="-7529.72" y1="8469.54" x2="-7399.41" y2="8688.69" gradientTransform="translate(-5387.67 10245.98) rotate(173.71)" gradientUnits="userSpaceOnUse"><stop offset="0" stop-color="#fff"/><stop offset="1" stop-color="#7a7b7e"/></linearGradient><linearGradient id="linear-gradient-3" x1="-7334.01" y1="8716.34" x2="-7480.08" y2="8662.39" xlink:href="#linear-gradient"/><linearGradient id="linear-gradient-4" x1="-7620.49" y1="9017.96" x2="-7635.3" y2="9006.12" gradientTransform="translate(-5387.67 10245.98) rotate(173.71)" gradientUnits="userSpaceOnUse"><stop offset="0" stop-color="#713128"/><stop offset="1" stop-color="#381711"/></linearGradient><linearGradient id="linear-gradient-5" x1="-7563.66" y1="8898.44" x2="-7548.53" y2="8907.98" gradientTransform="translate(-5387.67 10245.98) rotate(173.71)" gradientUnits="userSpaceOnUse"><stop offset="0" stop-color="#f18d23"/><stop offset="1" stop-color="#894c0a"/></linearGradient><linearGradient id="linear-gradient-6" x1="-7572.82" y1="8908.82" x2="-7565.25" y2="8913.42" xlink:href="#linear-gradient-5"/><linearGradient id="linear-gradient-7" x1="-7557.21" y1="8902.17" x2="-7550.63" y2="8906.28" gradientTransform="translate(-5387.67 10245.98) rotate(173.71)" gradientUnits="userSpaceOnUse"><stop offset="0" stop-color="#f4a034"/><stop offset="1" stop-color="#894c0a"/></linearGradient></defs><g class="cls-1"><g id="Layer_1" data-name="Layer 1"><rect class="cls-2" width="1920" height="1086"/><path class="cls-3" d="M898.19,1038.31a1.35,1.35,0,0,0,1.24.53h.11a1.38,1.38,0,0,0,1.07-1c39.43-140.3,240.91-457.57,242.94-460.76a1.38,1.38,0,0,0-.3-1.82l-17.44-14a1.34,1.34,0,0,0-1-.29h-.09a1.34,1.34,0,0,0-.94.63c-1.84,3-185.28,298-237.51,447.2a1.14,1.14,0,0,0-.07.33l-.08,1C886.11,1022.38,897.69,1037.67,898.19,1038.31Z"/><path class="cls-4" d="M1142.38,576.35s-203.16,319-243.1,461.12c0,0-11.79-15.42-11.78-27.34l.07-.83C940.36,858.54,1125,562.38,1125,562.38Z"/><path class="cls-5" d="M1125.31,564.43l15.25,12.22c-12.75,20.13-201.64,319.75-241.81,457.68-3.18-4.67-9.87-15.53-9.87-24.19l0-.54c50.41-143.82,222.91-423.45,236.38-445.17Z"/><path class="cls-6" d="M888.93,1009.6l0,.54c0,4.47,1.78,9.51,3.94,14C921.22,913,1132.5,570.82,1132.5,570.82l.12-.53-7.31-5.86C1111.84,586.15,939.34,865.78,888.93,1009.6Z"/><path class="cls-7" d="M1259.6,354.89c3.21-.36,9.45-.48,15.05,2.65,8,4.48,8.27,11,8.27,11.25a1.35,1.35,0,0,1-.23.81L1158.27,556.12a1.38,1.38,0,0,1-1.79.46l-23.7-12.28a1.41,1.41,0,0,1-.7-.88,1.36,1.36,0,0,1,.19-1.11l124.42-186.53a1.39,1.39,0,0,1,.85-.58s.77-.17,2.06-.31Z"/><path class="cls-8" d="M1157.12,555.35l124.42-186.52s-.16-5.94-7.57-10.09-16.13-2.19-16.13-2.19L1133.42,543.07Z"/><path class="cls-9" d="M1259.9,357.63c2.89-.31,8.47-.44,13.4,2.32,5.58,3.13,6.63,7.24,6.81,8.53L1156.65,553.56l-21.22-11L1258.67,357.8c.3-.05.72-.11,1.23-.17Z"/><path class="cls-10" d="M1275.67,370.93s-2.67-6.4-5.78-9.6c0,0-7.66-1.52-12.24-.23a45.59,45.59,0,0,0,6.52,9.13A111.71,111.71,0,0,1,1275.67,370.93Z"/><path class="cls-10" d="M1259.93,362.08a37.52,37.52,0,0,1,9.26.53,31.66,31.66,0,0,1,4.2,6.68c-3.51-.32-7.22-.41-8.63-.44a41.88,41.88,0,0,1-4.94-6.75l.11,0Z"/><path class="cls-10" d="M1270.34,378.9s-2.67-6.4-5.78-9.6c0,0-7.65-1.52-12.24-.23a45.68,45.68,0,0,0,6.53,9.13A108.42,108.42,0,0,1,1270.34,378.9Z"/><path class="cls-10" d="M1254.6,370.05a37.63,37.63,0,0,1,9.26.52,31.32,31.32,0,0,1,4.2,6.69c-3.51-.33-7.22-.42-8.63-.44a41.92,41.92,0,0,1-4.94-6.76Z"/><path class="cls-10" d="M1265,386.86s-2.68-6.39-5.79-9.6c0,0-7.65-1.52-12.23-.22a45.89,45.89,0,0,0,6.52,9.13A110.41,110.41,0,0,1,1265,386.86Z"/><path class="cls-10" d="M1249.28,378a37.71,37.71,0,0,1,9.26.52,32.08,32.08,0,0,1,4.2,6.68c-3.52-.32-7.22-.41-8.63-.43a41.87,41.87,0,0,1-4.95-6.76Z"/><path class="cls-10" d="M1259.69,394.84s-2.68-6.41-5.78-9.6c0,0-7.66-1.53-12.24-.24a45.59,45.59,0,0,0,6.52,9.13A109.94,109.94,0,0,1,1259.69,394.84Z"/><path class="cls-10" d="M1244,386a37.21,37.21,0,0,1,9.26.52,31.66,31.66,0,0,1,4.2,6.68c-3.51-.32-7.22-.41-8.63-.43a42.36,42.36,0,0,1-4.94-6.76Z"/><path class="cls-10" d="M1254.36,402.8s-2.67-6.4-5.78-9.6c0,0-7.65-1.52-12.24-.23a45.68,45.68,0,0,0,6.53,9.13A111.44,111.44,0,0,1,1254.36,402.8Z"/><path class="cls-10" d="M1238.62,394a37.63,37.63,0,0,1,9.26.52,31.32,31.32,0,0,1,4.2,6.69c-3.51-.32-7.22-.42-8.62-.44a41.44,41.44,0,0,1-5-6.76Z"/><path class="cls-10" d="M1249,410.76s-2.67-6.4-5.78-9.59c0,0-7.65-1.53-12.23-.24a45.59,45.59,0,0,0,6.52,9.13A111.44,111.44,0,0,1,1249,410.76Z"/><path class="cls-10" d="M1233.29,401.92a37.26,37.26,0,0,1,9.27.52,32.08,32.08,0,0,1,4.2,6.68c-3.52-.32-7.22-.41-8.64-.43a42.36,42.36,0,0,1-4.94-6.76Z"/><path class="cls-10" d="M1243.71,418.73s-2.68-6.39-5.79-9.6c0,0-7.65-1.52-12.23-.22a46,46,0,0,0,6.52,9.12A111.71,111.71,0,0,1,1243.71,418.73Z"/><path class="cls-10" d="M1228,409.89a36.73,36.73,0,0,1,9.26.52,32.08,32.08,0,0,1,4.2,6.68c-3.52-.32-7.22-.41-8.63-.43a42.49,42.49,0,0,1-5-6.76Z"/><path class="cls-10" d="M1238.38,426.7s-2.68-6.4-5.78-9.6c0,0-7.66-1.52-12.24-.23a45.59,45.59,0,0,0,6.52,9.13A111.71,111.71,0,0,1,1238.38,426.7Z"/><path class="cls-10" d="M1222.64,417.85a37.69,37.69,0,0,1,9.27.53,31.36,31.36,0,0,1,4.19,6.68c-3.51-.32-7.21-.41-8.63-.44a41.88,41.88,0,0,1-4.94-6.75l.11,0Z"/><path class="cls-10" d="M1233.05,434.67s-2.67-6.4-5.78-9.6c0,0-7.65-1.53-12.23-.23a45.43,45.43,0,0,0,6.52,9.13A108.42,108.42,0,0,1,1233.05,434.67Z"/><path class="cls-10" d="M1217.31,425.82a37.76,37.76,0,0,1,9.27.52,31.66,31.66,0,0,1,4.19,6.69c-3.51-.33-7.21-.42-8.62-.44a41.44,41.44,0,0,1-5-6.76Z"/><path class="cls-10" d="M1227.73,442.63s-2.68-6.4-5.79-9.6c0,0-7.65-1.52-12.23-.23a45.59,45.59,0,0,0,6.52,9.13A111.71,111.71,0,0,1,1227.73,442.63Z"/><path class="cls-10" d="M1212,433.79a37.26,37.26,0,0,1,9.27.52,31.82,31.82,0,0,1,4.2,6.68c-3.52-.32-7.22-.41-8.63-.44a41.4,41.4,0,0,1-5-6.75Z"/><path class="cls-10" d="M1222.4,450.6s-2.67-6.4-5.78-9.6c0,0-7.66-1.52-12.24-.23a45.89,45.89,0,0,0,6.52,9.13A111.71,111.71,0,0,1,1222.4,450.6Z"/><path class="cls-10" d="M1206.66,441.75a37.1,37.1,0,0,1,9.26.53,31.66,31.66,0,0,1,4.2,6.68c-3.51-.33-7.22-.42-8.63-.44a41.88,41.88,0,0,1-4.94-6.75l.11,0Z"/><path class="cls-10" d="M1217.07,458.57s-2.67-6.4-5.78-9.6c0,0-7.65-1.52-12.24-.23a45.89,45.89,0,0,0,6.52,9.13A108.55,108.55,0,0,1,1217.07,458.57Z"/><path class="cls-10" d="M1201.33,449.72a37.15,37.15,0,0,1,9.27.53,31.36,31.36,0,0,1,4.19,6.68c-3.51-.33-7.21-.42-8.62-.44a41.44,41.44,0,0,1-5-6.76Z"/><path class="cls-10" d="M1211.75,466.53s-2.68-6.4-5.79-9.59c0,0-7.65-1.53-12.23-.24a45.59,45.59,0,0,0,6.52,9.13A111.71,111.71,0,0,1,1211.75,466.53Z"/><path class="cls-10" d="M1196,457.69a37.26,37.26,0,0,1,9.27.52,32.08,32.08,0,0,1,4.2,6.68c-3.52-.32-7.22-.41-8.64-.43a42.36,42.36,0,0,1-4.94-6.76Z"/><path class="cls-10" d="M1206.42,474.5s-2.68-6.4-5.78-9.6c0,0-7.66-1.52-12.24-.23a45.89,45.89,0,0,0,6.52,9.13A111.71,111.71,0,0,1,1206.42,474.5Z"/><path class="cls-10" d="M1190.68,465.65a37.1,37.1,0,0,1,9.26.53,31.66,31.66,0,0,1,4.2,6.68c-3.52-.32-7.22-.42-8.63-.44a41.28,41.28,0,0,1-4.94-6.75l.11,0Z"/><path class="cls-10" d="M1201.09,482.47s-2.67-6.4-5.78-9.6c0,0-7.66-1.53-12.24-.23a45.89,45.89,0,0,0,6.52,9.13A111.58,111.58,0,0,1,1201.09,482.47Z"/><path class="cls-10" d="M1185.35,473.62a37,37,0,0,1,9.26.53,31.21,31.21,0,0,1,4.2,6.67c-3.51-.32-7.22-.41-8.63-.43a41.92,41.92,0,0,1-4.94-6.76Z"/><path class="cls-10" d="M1195.76,490.44s-2.67-6.4-5.78-9.6c0,0-7.65-1.53-12.23-.23a45.65,45.65,0,0,0,6.52,9.12A109.67,109.67,0,0,1,1195.76,490.44Z"/><path class="cls-10" d="M1180,481.59a37.26,37.26,0,0,1,9.27.52,31.61,31.61,0,0,1,4.19,6.68c-3.51-.32-7.21-.41-8.62-.43a41.87,41.87,0,0,1-4.95-6.76Z"/><path class="cls-10" d="M1190.44,498.4s-2.68-6.4-5.79-9.6c0,0-7.65-1.52-12.23-.23a45.59,45.59,0,0,0,6.52,9.13A111.71,111.71,0,0,1,1190.44,498.4Z"/><path class="cls-10" d="M1174.7,489.56a37.21,37.21,0,0,1,9.26.52,31.82,31.82,0,0,1,4.2,6.68c-3.52-.32-7.22-.41-8.63-.44a41.4,41.4,0,0,1-5-6.75Z"/><path class="cls-10" d="M1185.11,506.37s-2.67-6.4-5.78-9.6c0,0-7.66-1.52-12.24-.23a45.89,45.89,0,0,0,6.52,9.13A111.71,111.71,0,0,1,1185.11,506.37Z"/><path class="cls-10" d="M1169.37,497.52a37.71,37.71,0,0,1,9.26.52,31.32,31.32,0,0,1,4.2,6.69c-3.51-.33-7.22-.42-8.63-.44a41.92,41.92,0,0,1-4.94-6.76Z"/><path class="cls-10" d="M1179.78,514.33s-2.67-6.39-5.78-9.6c0,0-7.66-1.52-12.23-.22a45.43,45.43,0,0,0,6.52,9.13A110.14,110.14,0,0,1,1179.78,514.33Z"/><path class="cls-10" d="M1164,505.49a37.76,37.76,0,0,1,9.27.52,31.61,31.61,0,0,1,4.19,6.68c-3.51-.32-7.21-.41-8.62-.43a41.44,41.44,0,0,1-5-6.76Z"/><path class="cls-10" d="M1174.46,522.3s-2.68-6.4-5.79-9.6c0,0-7.65-1.52-12.23-.23a45.59,45.59,0,0,0,6.52,9.13A111.71,111.71,0,0,1,1174.46,522.3Z"/><path class="cls-10" d="M1158.71,513.46a37.26,37.26,0,0,1,9.27.52,32.08,32.08,0,0,1,4.2,6.68c-3.52-.32-7.22-.42-8.63-.43a41.87,41.87,0,0,1-5-6.76Z"/><path class="cls-10" d="M1169.13,530.27s-2.68-6.4-5.78-9.6c0,0-7.66-1.52-12.24-.23a45.89,45.89,0,0,0,6.52,9.13A111.71,111.71,0,0,1,1169.13,530.27Z"/><path class="cls-10" d="M1153.39,521.42a37.71,37.71,0,0,1,9.26.52,31.72,31.72,0,0,1,4.2,6.69c-3.51-.33-7.22-.42-8.63-.44a42,42,0,0,1-5-6.76Z"/><path class="cls-10" d="M1163.8,538.23s-2.67-6.39-5.78-9.59c0,0-7.66-1.53-12.24-.23a45.65,45.65,0,0,0,6.52,9.12A111.58,111.58,0,0,1,1163.8,538.23Z"/><path class="cls-10" d="M1148.06,529.39a37.13,37.13,0,0,1,9.26.52,31.08,31.08,0,0,1,4.2,6.69c-3.51-.33-7.22-.42-8.63-.44a41.92,41.92,0,0,1-4.94-6.76Z"/><path class="cls-10" d="M1158.47,546.2s-2.67-6.4-5.78-9.6c0,0-7.65-1.52-12.23-.22a45.4,45.4,0,0,0,6.51,9.12A111.58,111.58,0,0,1,1158.47,546.2Z"/><path class="cls-10" d="M1142.73,537.36a37.26,37.26,0,0,1,9.27.52,32.08,32.08,0,0,1,4.2,6.68c-3.52-.32-7.22-.41-8.63-.43a41.87,41.87,0,0,1-5-6.76Z"/><path class="cls-11" d="M1168,571.37s-14.51-8.5-19.74-10.9-21.12-12.9-21.12-12.9-7.17-6.49-9.2-9.91l6.06,1s33,16.89,35.89,19.21S1168.1,569.37,1168,571.37Z"/><path class="cls-12" d="M1153.74,562.18s-15.84-11.49-23.69-13.6l-11.64,17.5s21.18,8.92,24.95,13.14Z"/><path class="cls-13" d="M1120.62,533.56s37.74,21,42.38,24.13,8.06,10,8.06,10l-3,3.81s-3.41-6.9-8.06-10-42.39-24.13-42.39-24.13Z"/><path class="cls-14" d="M1151.68,563.07l-8.35,14.33-2.91-2.33s8.19-9.84,6.49-16.27C1146.91,558.8,1151,561.66,1151.68,563.07Z"/><path id="tshirt_main" data-name="tshirt main" class="cls-15" d="M757.28,588.5s234-168,346-12-26,317-23,371,3,133,3,133h-274Z"/><g id="main_jacket_colour" data-name="main jacket colour"><path class="cls-16" d="M553.86,1079c.35-6.6,1.82-32.1,4.36-40.57.67-2.24,1.21-4.22,1.68-6a66.59,66.59,0,0,1,8.18-19.7c7.28-12.49,13.2-31.67,13.2-42.76,0-10.46,13.65-33,13.79-33.22l.25-.41,0-.48c-1-13.27-.06-25.65,2.06-26.5,5.87-2.34,14.94-19,14.94-27.39,0-12.31,4.18-62.62,24.59-84l.63-.67-.3-.86c-2.14-6.16-6.37-23.44-.36-29.45l1.65-1.63c7.38-7.24,12.71-12.48,10.79-34.56-2.07-23.82-.78-53.63,5.69-62,3.13-4,6.53-14.18,10.47-25.94,4.63-13.85,10.4-31.07,15.07-33.67,2.53-1.4,5.38-2.81,8.39-4.29,7.64-3.77,16.29-8,22.88-13.9,5.62-5,19.94-7.69,30.39-9.65,6-1.12,10.67-2,13.21-3.09,6-2.39,189.62-25.77,286.21-37.84,5.79,2.27,79.47,31.32,98.47,41.77,7.51,4.14,14.78,5.17,22.48,6.27a114,114,0,0,1,16.12,3.15c3.82,1.11,7.65,3.13,12.09,5.48,6.26,3.3,14,7.41,24.65,10.24,23.5,6.27,25.24,15.24,31,45,1.35,6.91,2.86,14.74,4.92,23.9l.08.34.22.27c2.24,2.78,7.91,10.95,7.18,15.31-1,5.76-6.84,19.52-6.89,19.66l-.46,1.07,17.26,13.21c-.29,3-1.31,14-2,25.09-1.79,26.92-.26,28.46.56,29.28,2.4,2.4,6.41,19.93,7.58,28.15.47,3.3,3.76,7,7.58,11.39,4.91,5.59,10.47,11.92,9.43,17.11-.3,1.5-.66,2.93-1,4.45-2.15,8.48-4.38,17.26,5.2,35.54.19.33,16.6,29.54,11.94,40.72-.85,2-.93,3.67-.26,5,1.08,2.19,3.7,2.88,6.74,3.67s6.67,1.75,8.93,4.47c2.67,3.22,3.16,8.48,1.51,16.1-1.9,8.76-.43,10.58,3.83,11.54,4,.91,11.39,2.59,12.11,40.69l-120.22,37.81c1.63-6.29,4-21.51-8.48-29-6-3.58-6.1-6.15-6.3-10.41-.27-5.73-.65-13.59-14.42-27.36-2.37-2.37-1.8-3.71-.67-6.37,2-4.64,4.67-11-8.3-24.6-9.58-10.06-7-16.71-3.71-25.14,3.16-8.12,7.09-18.23,0-33.46-5.54-11.88-10.51-20.46-14.9-28-6.5-11.22-11.2-19.32-13-30.56l-1.25-7.89-1.7,7.8c-.49,2.26-12,55.49-9,74.55,1.07,6.76-1.06,11.49-3.13,16.06-7,15.53-.44,22.9,6.49,30.71,2.44,2.74,1.78,5.92.5,10.88-1.89,7.37-4.25,16.53,10.93,24.45,7.45,3.88,7.44,16.59,7.44,32.67,0,20.51,0,45.83,15.2,66.5H1039.9c1.18-15.91,10.27-144.1,1.86-191.76-2.15-12.17-4.42-22.92-6.43-32.4-6.47-30.6-10.37-49.08-.71-67.65,12.9-24.82,68.24-193.55,70.59-200.72l.67-2-317.2,11.14.69,1.94c.28.76,27.56,76.74,34.46,103.37,7,27.12,49.85,141.67,57.07,159.19,5.38,13.07-11.23,148.78-20.92,219.92l-111.38-1c-1.19-9.35-8.17-66.57-2-79.88,5.13-11,5-18.75,4.94-28.59,0-4-.08-8.1.2-12.95a34.76,34.76,0,0,1,3.47-14.09c2-4.6,4.11-9.35,3.53-22.07-.33-7.3-.33-15.55-.33-23.52,0-16.19,0-32.93-2.71-43.77-3-12.15-7.91-64.3-9.86-86.15l-3,.16a146.72,146.72,0,0,1-7,46.9c-2.56,8.15-5.12,16-7.61,23.68-8.36,25.72-15.58,47.93-19.43,69.51-3,16.74-6.26,21.33-8.65,24.68a15.06,15.06,0,0,0-3.37,8.43c-.39,3.95-2.19,7.73-4.1,11.73-2.77,5.81-5.91,12.39-5.91,21.42,0,18-1.75,78.56-24.19,105.5Z"/><path class="cls-17" d="M1041.4,542.07c7.92,3.12,79.34,31.33,97.94,41.56,7.75,4.26,15.15,5.32,23,6.44a111.06,111.06,0,0,1,15.91,3.1c3.68,1.07,7.45,3.06,11.81,5.36,6.33,3.34,14.2,7.5,25,10.37,22.59,6,24.14,14,29.92,43.81,1.34,6.92,2.87,14.77,4.93,23.95l.15.68.44.55c3.18,3.93,7.41,10.91,6.88,14.12-.78,4.62-5.17,15.51-6.8,19.31l-.92,2.14,1.85,1.42,15.68,12c-.37,3.89-1.29,14-2,24.31-1.84,27.6-.27,29.18,1,30.43,1.86,2,5.79,17.77,7.15,27.31.54,3.75,4,7.65,7.94,12.17,4.45,5.06,10,11.36,9.09,15.82-.29,1.46-.65,2.88-1,4.38-2.12,8.35-4.52,17.81,5.32,36.6l0,.05,0,0c6.29,11.11,15.07,31.62,11.84,39.37-1,2.45-1.09,4.5-.22,6.26,1.39,2.8,4.6,3.64,7.71,4.45,6.54,1.72,12.72,3.33,9.35,18.8-1.91,8.8-.7,12,5,13.32,2.12.48,4.12.94,6.15,5.25,2.81,6,4.42,17,4.78,32.88L1222.67,1035c1.77-8.87,1.11-21.48-9.84-28.05-5.28-3.17-5.37-5.06-5.57-9.2-.29-6-.68-14.17-14.85-28.35-1.66-1.66-1.46-2.12-.36-4.72,2.56-6,4-13-8.59-26.23-8.92-9.36-6.73-15-3.4-23.55s7.32-18.84-.06-34.65c-5.57-11.94-10.78-20.93-15-28.15C1158.62,841,1154,833,1152.25,822l-2.49-15.77-3.41,15.6c-.49,2.27-12.08,55.77-9,75.11,1,6.31-1,10.63-3,15.2-3.64,8.07-7.4,16.42,6.73,32.32,1.94,2.18,1.36,4.9.17,9.52-1.92,7.46-4.54,17.68,11.69,26.15,6.64,3.46,6.63,15.77,6.63,31.34,0,20,0,44.42,13.81,65H1041.52c1.62-21.94,10-143.4,1.72-190.52-2.15-12.19-4.43-23-6.44-32.45-6.4-30.28-10.26-48.55-.85-66.65,13-24.93,68.33-193.77,70.68-201l1.34-4.08-4.29.15-313,11-4.11.15L788,597c.28.77,27.53,76.68,34.42,103.24,7,27.18,49.91,141.86,57.13,159.39,1.52,3.7,2.5,23.68-8.08,115.88-5.27,46-11.26,90.83-12.76,102l-108.75-1c-2.57-20.12-7.12-66.61-1.92-77.75s5.18-19.61,5.08-29.24c0-4-.08-8,.2-12.85a33.74,33.74,0,0,1,3.34-13.58c2.09-4.75,4.26-9.67,3.66-22.74-.33-7.26-.33-15.49-.33-23.45,0-16.28,0-33.11-2.76-44.14-3-12-7.85-63.94-9.81-85.82a83.09,83.09,0,0,0-1.15-13l-5.94.84s.42,4.9,1.1,12.54a145.17,145.17,0,0,1-7,46.31c-2.56,8.14-5.12,16-7.6,23.67-8.38,25.77-15.62,48-19.49,69.7-2.93,16.41-6.09,20.84-8.39,24.08a16.52,16.52,0,0,0-3.64,9.15c-.37,3.69-2,7.18-4,11.23-2.83,6-6.05,12.7-6.05,22.07,0,17.76-1.7,77.19-23.4,104H555.44c.46-8.33,1.89-30.89,4.22-38.64.68-2.26,1.21-4.25,1.69-6,1.67-6.23,2.78-10.35,8-19.34,7.39-12.67,13.4-32.19,13.4-43.51,0-8.32,9.79-26.24,13.57-32.44l.5-.83-.07-1c-.89-11.47-.25-23,1.35-25.08,6.37-2.86,15.65-19.78,15.65-28.69,0-12.18,4.11-62,24.17-82.93l1.27-1.32-.6-1.73c-2.85-8.22-5.56-23-.71-27.9.55-.56,1.1-1.09,1.64-1.62,7.38-7.25,13.2-13,11.22-35.76-2.07-23.87-.63-53.17,5.38-60.9,3.29-4.22,6.73-14.49,10.71-26.39,4.07-12.15,10.22-30.52,14.38-32.83,2.49-1.38,5.33-2.78,8.33-4.26,7.71-3.81,16.46-8.12,23.21-14.12,5.31-4.72,19.39-7.36,29.67-9.3,6-1.12,10.76-2,13.46-3.16,7.48-2.41,174.44-23.82,285.49-37.71m.38-3.07s-280,35-287,38-35,5-44,13-22,13-31,18-19,51-26,60-8,40-6,63-4,27-12,35,0,31,0,31c-22,23-25,77-25,85s-9,24-14,26-3,28-3,28-14,23-14,34-6,30-13,42-7,16-10,26-4.5,42.5-4.5,42.5h111c24-28,25-92,25-107s9-23,10-33,7-5,12-33,16-58,27-93a147.91,147.91,0,0,0,7.11-47.38c-.69-7.69-1.11-12.62-1.11-12.62a81,81,0,0,1,1.11,12.62c2.13,23.86,6.87,74.28,9.89,86.38,4,16,2,45,3,67s-6,19-7,36,2,26-5,41,2,82,2,82l114,1s28-205,21-222-50-132-57-159S790.78,596,790.78,596l313-11s-57.5,175.5-70.5,200.5-2,50,7,101-2,193-2,193h141c-30-37-6.29-92.24-25-102-23-12-3-26-11-35-20.67-23.25,0-27-3-46s9-74,9-74c3,19,14,29,28,59s-16,38,4,59,1,23,9,31c24,24,6,29,21,38s7,30,7,30l124-39c-1-65-21-30-16-53,6.55-30.1-22-17-17-29s-12-42-12-42c-11-21-6-29-4-39s-16-22-17-29-5-26-8-29,2-54,2-54l-17-13s6-14,7-20-7.5-16.5-7.5-16.5c-11-49-7-62-37-70-17.76-4.74-27.08-12.92-36.71-15.71-14.74-4.27-26.19-2.64-38.29-9.29-20-11-99-42-99-42Z"/></g><g id="back"><path class="cls-18" d="M772.28,626.5s-7-85-18-112c-5.13-12.6,12.81-20.48,30-32,19.66-13.17,37-25,50-32,0,0,131-57,251,4,30.27,15.39,42,29.16,48.35,37.5,4,5.18,7.1,5.19,7.65,11.5,2.08,23.84-16.31,54.67-24,86"/><path class="cls-17" d="M772.28,626.5c-3.34-31.9-6.84-63.92-13.93-95.24a115.9,115.9,0,0,0-3.73-13.14c-.65-2-1.89-4.64-2.08-6.77-.71-7.65,6.15-13,11.65-17.05,7.56-5.33,15.47-9.87,23-15.17,15.28-10.29,30.33-20.88,46.5-29.83a322.9,322.9,0,0,1,50.91-15.63c58.78-13.35,121.91-12.48,178.51,9.53,25.9,10.71,52.33,24.17,69.94,46.67,1.92,2.81,4.29,4.87,6.64,7.32a10.53,10.53,0,0,1,2.37,6.58l.1,3.37c-.1,11.15-3.57,22-7.23,32.41-6,16.64-13.2,32.82-17.67,50,4-17.24,11-33.6,16.72-50.28,3.48-10.41,6.66-21.09,6.64-32.07-.12-2.16,0-4.41-.68-6.32s-2.15-3.3-3.8-4.83a37.41,37.41,0,0,1-4.46-5.05,102.19,102.19,0,0,0-18.83-18.22C1073.64,444.35,1025,430.46,977,428.14a351.46,351.46,0,0,0-91.74,8.29,320.43,320.43,0,0,0-50.43,15.29c-15.47,8.51-31.17,19.41-46.3,29.35-7.54,5.18-15.62,9.73-23.12,14.91-5,3.69-11.48,8.27-11,15.18.11,1.84,1.39,4.58,1.93,6.37A125.57,125.57,0,0,1,760,530.89c6.73,31.45,9.69,63.6,12.33,95.61Z"/><g class="cls-19"><path d="M879.77,522.44c-31.16,8.09-59.48,24.25-83.39,45.81-6.83,6.16-14,9.25-18.6,1.75-1.59-2.61-1.59-5.93-2.29-9.73-1.43-7.8-2.56-17.6-3.91-27.22-2.51-17.94-4-36.28-2.8-39,.67-1.6,2.81-3.79,7.2-6.5,19.29-11.9,58.46-40.24,76.3-37,0,0,187.88-27.64,237,2,23.23,14,34.21,22.55,39.39,27.42A12.87,12.87,0,0,1,1132.6,491c-2.86,22.09-14.34,102.56-27.32,83.53C1092.14,555.22,1022.91,485.24,879.77,522.44Z"/><path class="cls-17" d="M879.77,522.44c-29.35,7.63-56.51,22.68-79.41,42.45-6,5.36-16.23,15.49-22.67,5.19-1.6-2.66-1.65-5.84-2.16-8.81-1.1-6-1.92-12-2.72-18-1.62-12-3.39-24-4.24-36.1-.21-3-.4-6.05-.39-9.09a11.66,11.66,0,0,1,.59-4.56c2.47-4,6.94-5.95,10.65-8.47l7.64-4.93c15.27-9.79,30.49-20.06,47.42-26.81a59,59,0,0,1,8.72-2.68,25.3,25.3,0,0,1,9.14-.47c25.91-3.71,53.09-6.63,79.56-8.77,39.91-2.91,80.26-5.25,120.1-.21a163.29,163.29,0,0,1,19.71,3.83,69.59,69.59,0,0,1,18.6,7.58c11.41,7,22.74,14.11,33.25,22.41,5.73,4.5,10.67,8.64,9.3,16.79-1.18,7.77-12.86,102.21-27.49,83.24-16.81-22.9-41.9-38.75-68-49.12-50.14-19.62-106.18-16.75-157.57-3.5Zm0,0c51.4-13.37,107.48-16.35,157.7,3.17,26.23,10.36,51.4,26.19,68.33,49.14,13.6,17.72,25.26-75.47,26.33-83,1.31-7.8-3.48-11.73-9.05-16.09-10.49-8.24-21.83-15.34-33.22-22.27a68.41,68.41,0,0,0-18.38-7.44,160.78,160.78,0,0,0-19.61-3.77c-39.76-4.91-80-2.79-119.9.06q-40,3.14-79.69,8.6a24.57,24.57,0,0,0-8.95.44,59.73,59.73,0,0,0-8.64,2.63c-16.9,6.71-32.11,16.92-47.38,26.66l-7.65,4.91c-3.69,2.49-8.09,4.44-10.52,8.29a11.46,11.46,0,0,0-.55,4.37c0,3,.16,6.05.37,9.06.82,12.09,2.57,24.08,4.16,36.09.79,6,1.59,12,2.67,18,.5,2.94.56,6.1,2.11,8.72,6.28,10.13,16.48,0,22.33-5.21,23-19.73,50.17-34.74,79.54-42.3Z"/></g><path class="cls-20" d="M774.28,501.5s6.39,72.78,7.7,72.39,12.22-1.16,29.76-18.27,114.62-65.53,209.58-35.32,89,42.2,89,42.2,17-66,17-68-45-37-68-44-160.52-28-204.76,0S817.28,468.5,774.28,501.5Z"/><path class="cls-21" d="M774.28,501.5c2.52,22.61,4.86,50.23,8.2,71.74-.09-.19-1.15-.18-.69-.17l.13,0c6.7-1.29,12.68-4.82,18.14-8.85,5.48-3.87,9.92-9,15.15-13.14a139.13,139.13,0,0,1,17.16-10.79c55.46-28.94,122-40.85,183-24.12,8.38,2.37,17.43,5.37,25.65,8.14,11.72,4,26.43,9.3,37.75,14.23,7.94,3.5,34.13,14.6,34,23.69a3.37,3.37,0,0,1-.32,1.41l-4.63-1.73c5.62-22.29,11.61-44.57,16.85-66.94l0-.24,0-.12v-.06c0-.14,0,.18.06.48a2.1,2.1,0,0,0,.23.58s0,0,0,0C1114.85,486,1103,478,1091.39,470.14c-9.82-6.36-19.75-12.61-30.63-16.74-6.56-2.25-13.52-3.45-20.37-4.81-18.56-3.39-37.32-5.87-56.1-7.74-36.53-3.21-88.34-6.74-122.36,7.09-5.11,2.07-10.58,5.85-15.33,8.64-12.1,7.48-24.86,13.83-37.23,20.81-12.26,7.19-23.65,15.67-35.09,24.11Zm0,0c14.84-11.77,30.07-23.28,46.89-32.11,10.26-5.68,20.53-11.89,30.4-18.27a76.83,76.83,0,0,1,7.77-4.53c33.41-15.5,88.64-12.43,125.31-9.65,23.67,2.11,47.33,5,70.59,10.15a66,66,0,0,1,13.82,4.8c17.36,8.32,33,19.26,48.28,30.79,4,3.2,8.09,6.07,11.61,9.87a4,4,0,0,1,.44.66,2.36,2.36,0,0,1,.25.66,2.54,2.54,0,0,1,.08.69l0,.16,0,.32-.09.64c-.33,1.87-.83,3.58-1.22,5.39-5,20.72-10.32,41.43-15.65,62.05l-4.63-1.73a1.74,1.74,0,0,0-.2.58c0,.12,0,.08,0,.06a.15.15,0,0,1,0-.07c-.1-.19-.17-.38-.27-.59-1.74-2.59-4.71-4.62-7.26-6.4a147.91,147.91,0,0,0-17.35-9.3c-13.37-6.09-29.51-12-43.45-16.85-8.13-2.73-17.07-5.8-25.35-8.19-34.09-9.74-70.4-9.88-105.13-3.48-30.37,5.85-60.41,15.92-86.86,32.16-7.78,4.57-13.5,11.49-20.88,16.58-5.7,4-12,7.6-19,8.79.4,0-.74.08-.88-.19a1.09,1.09,0,0,1-.32-.51c0-.1-.06-.18-.09-.26l-.11-.46c-3.24-23.8-4.6-47.83-6.57-71.76Z"/><ellipse class="cls-22" cx="1133.33" cy="524" rx="3.5" ry="2.04" transform="translate(390.55 1527.63) rotate(-78.31)"/><ellipse class="cls-22" cx="1130.33" cy="537" rx="3.5" ry="2.04" transform="translate(375.42 1535.06) rotate(-78.31)"/><ellipse class="cls-22" cx="765.78" cy="535.5" rx="2.5" ry="6" transform="translate(-85.7 150.59) rotate(-10.64)"/><ellipse class="cls-22" cx="768.78" cy="554.5" rx="2.5" ry="6" transform="translate(-89.16 151.47) rotate(-10.64)"/></g><g id="lrft_shadow" data-name="lrft shadow" class="cls-23"><path d="M1209,1007.14c-2.71-2.11-3.87-3.8-4.32-5.41.56,2.66,2.06,5,6.63,7.77a18.69,18.69,0,0,1,3.49,2.68A61.69,61.69,0,0,0,1209,1007.14Z"/><path d="M1204.73,995.28c.07-5.22-2.63-12.42-12.45-22.78,0,0-4.81-1.37-3-9-1.16,2.73-2.09,4.93,1,8,15.3,15.29,13.55,22.87,14.13,28.67C1204.35,998.65,1204.7,997.11,1204.73,995.28Z"/><path d="M1342.28,1000.5c-1-65-21-30-16-53,6.55-30.1-22-17-17-29s-12-42-12-42c-11-21-6-29-4-39s-16-22-17-29-5-26-8-29,2-54,2-54l-17-13s6-14,7-20-7.5-16.5-7.5-16.5c-11-49-7-62-37-70-17.76-4.74-27.08-12.92-36.71-15.71-14.74-4.27-26.19-2.64-38.29-9.29-20-11-46.5,2.5-46.5,2.5l2,38s-50,139-63,164-2,50,7,101-2,193-2,193h141c-30-37-6.29-92.24-25-102-23-12-3-26-11-35-20.67-23.25,0-27-3-46s9-74,9-74c1.42,9,4.64,16,9.12,24-6.84-17.47-6.37-28.15-5.3-33.29a1.31,1.31,0,0,1,2.51-.21c14.3,35.43,53.67,64.49,53.67,64.49,26,18,37-18,45-9s-12,25-17,26-5,4-3,7-2,4-2,4c19,6,28,16,31,23s-32-4-32-4c-39-18.12-46.58-10.84-50.82-20.6-2.88,13.73-13,22,.82,36.6,9,9.43,10.1,15,9.33,19.06,4.65-11.08-5.33-20.06-5.33-20.06s-10-10,0-25c3.29-4.93,6.88,5.43,7.5,8.6,1.26,6.48-.34,14.67,24.5,23.4,0,0,26,10,34,8s-2,15,8,16,25-18,26-13-4,17,3,22,15,12,13,18-81.33,24.64-81.33,24.64,1.79-2.89-4.92-9.7c9.77,9.95,3.25,27.06,3.25,27.06Zm-131-363c-9,0-33,45-33,45a85.69,85.69,0,0,0-3-32c-5-17-10-33-10-33Zm-34,83c0-12,34-57,34-57C1220.28,693.5,1177.28,720.5,1177.28,720.5Zm-55,115c-6,63-63,93-63,9s97-168,97-168C1156.28,722.5,1128.28,772.5,1122.28,835.5Zm99-17c-34,10-45-5-59-16s-6-18-6-18c12.79,14.16,40.23,17.87,58.22,20.81a8.08,8.08,0,0,1,6.78,8Z"/><path d="M1182.27,895.7a34.73,34.73,0,0,0-5-14.2c3.52,7.53,4.26,13.67,3.72,19C1181.62,898.89,1182.38,897,1182.27,895.7Z"/></g><g id="right_shadow" data-name="right shadow" class="cls-19"><path d="M663.28,1080.5h-25l18-70s-5-11-8-8-14,7-14,7l34-41s8-55,30-96c10-18.56,4.14-32,3.53-45-.73-15.65,2.47-30.6,2.47-53l-15-24s9-4,9-12-1-48-6-67a128.39,128.39,0,0,1-4-36s17,43,28,59,13,41,13,41l3-76s8,50,8,64,12-48,25-61,14-27,14-27-26,111-25,135c0,0-7,0-11,19s-14,49-19,65-7,42-14,56-10,19-14,36-6,13-8,37S684.28,1060.5,663.28,1080.5Z"/><path d="M763.28,875.5s29,54,35,58l-4-21S775.28,897.5,763.28,875.5Z"/><path d="M772.28,677.5s13,79,24,91l-10-125Z"/><path d="M680.28,609.5s9.14,34.72,22.57,59.86c6.28,11.74,10.36,19.09,14.52,27.26,4.73,9.31,9.25,19.69,11.91,38.88"/><path d="M693.9,679.09s15.38,68.41,30.38,84.41,17.48,32.63,17.48,32.63"/></g><g id="wrinkle_jacket" data-name="wrinkle jacket" class="cls-24"><path class="cls-21" d="M667.43,637.5c-.17,17.18.07,34.38,1.14,51.51a212.09,212.09,0,0,0,2.84,25.49,34.28,34.28,0,0,0,4.07,11.8c12.35,20,27.57,38.22,41,57.57,3.24,4.37,7.52,7.84,10.34,12.61a7.34,7.34,0,0,1,.57,3.59c.48,8.41,3.65,16.65,7,24.36l-.27.14c-1.09-1.86-2.08-3.78-3-5.73-3-6.39-5.58-13.17-5.95-20.32a8.62,8.62,0,0,0-2.15-3.38c-2.84-3.17-6-6.15-8.76-9.51-11.74-15.42-23-31.09-33.85-47.24a119.93,119.93,0,0,1-8.34-14c-4.18-11.23-4.2-23.55-5-35.32-.39-17-1.08-35.2.35-51.59Z"/><path class="cls-21" d="M704.43,803.52A43.68,43.68,0,0,0,714,832.4c8,8.43,9.84,19.41,7.32,30.47a38.71,38.71,0,0,1-2.91,8.68l-.29-.1c1.72-11.16,2.8-24.2-3.22-34.13-.67-1.08-1.86-2.54-2.62-3.58A42,42,0,0,1,706,821.5a44.57,44.57,0,0,1-1.87-18l.3,0Z"/><path class="cls-21" d="M634.4,788.4c3.8,3.53,7.85,6.78,11.86,10.06,4.21,3.11,8.25,6.45,11.12,10.92l-.19.24c-5-2-9-5.47-12.54-9.37a114.6,114.6,0,0,1-10.48-11.65l.23-.2Z"/><path class="cls-21" d="M648.43,737.5A147,147,0,0,0,653,764.66a54.09,54.09,0,0,0,2.43,8.75l-.23.18c-5-4.24-6.25-11.24-6.69-17.42a117.61,117.61,0,0,1-.35-18.67Z"/><path class="cls-21" d="M610.43,885.5c.45,5.49.8,11,1.05,16.5.51,5.56.59,11-1.05,16.5h-.3c-1.63-5.45-1.55-10.94-1-16.5.25-5.5.61-11,1-16.5Z"/><path class="cls-21" d="M594.43,912.49a150.45,150.45,0,0,0,8.69,36.66,52.71,52.71,0,0,0,5.27,11.24l-.21.22c-7.17-5.24-9.81-14.41-11.37-22.73a143.45,143.45,0,0,1-2.68-25.37l.3,0Z"/><path class="cls-21" d="M708.41,916.58c-8.22,12.7-17.22,25.19-28.83,35.06a101.07,101.07,0,0,1-9.43,6.48,313.23,313.23,0,0,0-26.76,20.48l-.22-.2a85.14,85.14,0,0,1,7.56-8.54,92.85,92.85,0,0,1,17.84-14.25,89.78,89.78,0,0,0,9.53-5.86c11.77-9.3,21.24-21.26,30.06-33.33l.25.16Z"/><path class="cls-21" d="M691.37,960.62c-9.8,7.66-19.55,15.78-27.11,25.68-1.67,2.19-3,4.64-4.6,6.91A41,41,0,0,1,647.29,1005a17.23,17.23,0,0,1-3.95,1.69l-.11-.28c7.5-5.1,12.24-12.92,17.57-20.06a107,107,0,0,1,16.73-16.16c4.42-3.46,9-6.76,13.67-9.76l.17.24Z"/><path class="cls-21" d="M680.43,609.47c3.86,17.34,9,34.57,16.83,50.52,1.22,2.21,2.35,4.48,3.74,6.56,2.63,4.39,6.14,8.1,9,12.31a94.69,94.69,0,0,1,7.75,13.41,121.45,121.45,0,0,1,9.67,29.19l-.29.08a232.73,232.73,0,0,0-12.06-27.94c-1.94-3.75-4.32-7.92-6.5-11.51-3-4.89-6.8-9.32-9.63-14.29-5.2-8.84-8.73-18.68-11.79-28.43a264.24,264.24,0,0,1-7-29.84l.29-.06Z"/><path class="cls-21" d="M691.43,669.47c7.47,27.16,15.79,54.34,28.19,79.69,6.89,13.54,16.32,26,20.85,40.64.71,2.85,1.76,5.79.95,8.77l-.27-.14c.29-2.79-1-5.59-2-8.17-.78-1.9-1.8-4-2.72-5.86-3-5.74-6.32-11.31-9.78-16.8a137,137,0,0,1-8.7-15.21c-7.47-15.78-13.09-32.45-18.07-49.14-3.24-11.16-6.2-22.39-8.77-33.72l.29-.06Z"/><path class="cls-21" d="M733.43,656.51q-.91,25.89-2.83,51.73c-1.08,17.26-2.78,34.52-7,51.36l-.3-.05c.92-17.28,2.79-34.37,4.86-51.52q2.71-25.74,4.92-51.54l.3,0Z"/><path class="cls-21" d="M766.43,576.49a525.42,525.42,0,0,1,2.55,54.1c-.38,15.8-.88,32-5.82,47.16-.65,1.87-1.7,4.45-2.21,6.34-3.63,12.83-4.26,26.52-4.83,39.86-.85,22.5-.37,45,.31,67.54l-.3,0c-1.14-9-1.86-18-2.44-27-1.1-18.06-1.42-36.22.18-54.26,1-10.13,2.28-20.48,5.94-30.15a73.78,73.78,0,0,0,3.15-9.49c5.11-21.9,4.88-44.7,4.53-67.09-.24-9-.66-18-1.36-27l.3,0Z"/><path class="cls-21" d="M784.43,648.49c2.4,22.62,7.92,90.56,11.2,111.9,3.32,16.66,8.79,32.76,13.79,49.06l-.28.1c-1.44-3.1-2.73-6.26-4.06-9.42-5.61-14.34-11.23-29-13.3-44.34-1.57-16.55-3.68-49.44-5-66.41l-2.67-40.87.3,0Z"/><path class="cls-21" d="M754.41,855.41a366.34,366.34,0,0,1,24.7,39,171.54,171.54,0,0,1,10.09,20.83c2.39,6.08,4.72,12.71,7.09,18.82a6.58,6.58,0,0,0,.42.84.29.29,0,0,0-.3,0c-.16.13-.11.18-.12.17a6.06,6.06,0,0,0-.15-1.5l.29-.08a11.11,11.11,0,0,1,.49,1.41c0,.17.1.36-.17.57a.4.4,0,0,1-.46,0c-2.09-2.58-3.41-5.69-5-8.6-5.17-10.28-9.21-21-14.35-31.32a431.1,431.1,0,0,0-22.82-39.9l.25-.18Z"/><path class="cls-21" d="M757.41,918.42a218.7,218.7,0,0,1,14.31,26.21c4.34,9,7.91,18.72,7.71,28.85l-.3,0c-3-9.48-6.24-18.64-9.62-27.95a291.76,291.76,0,0,0-12.35-27l.25-.16Z"/><path class="cls-21" d="M750.41,970.42a160.68,160.68,0,0,1,16.71,30.81c4.08,9.38,7.06,19.54,7.32,29.84,0,1.48,0,3,0,4.42l-.3,0c-2.77-11.34-5.52-22.39-9.25-33.43Q762,993.91,758.26,986a169.12,169.12,0,0,0-8.1-15.43l.25-.16Z"/><path class="cls-21" d="M788.43,822.5c.91,24,1.88,48.18,4.33,72.11.69,5.94,1.37,12,3,17.55a65.82,65.82,0,0,1,2,18.33,180.37,180.37,0,0,1-4.32,36l-.29,0c1.13-15,2.39-29.94,1.14-44.86a52.31,52.31,0,0,0-1.4-8.63c-1.51-6.11-2-12.11-2.5-18.15-1-12.05-1.47-24.11-1.82-36.17s-.43-24.11-.43-36.17Z"/><path class="cls-21" d="M831.43,802.48A90.45,90.45,0,0,1,833.36,816a31.58,31.58,0,0,1,.15,6.87,19.16,19.16,0,0,1-2.08,6.66l-.29,0A44.06,44.06,0,0,1,831,816c.2-4.49.28-9,.18-13.5l.29,0Z"/><path class="cls-21" d="M829.43,843.51c.06,7.41.05,17.73.21,25a199.78,199.78,0,0,1-.21,25l-.29,0a42.88,42.88,0,0,1-1.92-9.32,88.63,88.63,0,0,1,0-15.71c.42-8.35,1-16.68,1.88-25l.3,0Z"/><path class="cls-21" d="M830.43,900.46a38.32,38.32,0,0,1,2.33,11.85c.41,4.1-.6,8.91-4.36,11.28l-.24-.18c.84-4,1.53-7.32,2.2-11.18a46.85,46.85,0,0,0,.2-5.8,53,53,0,0,0-.42-5.89l.29-.08Z"/><path class="cls-21" d="M1103.41,610.42a77.85,77.85,0,0,1,10.7,54.3c-1.54,9.34-5.46,18.11-9.32,26.65s-7.9,16.94-12.37,25.19l-.27-.12c3.72-11.11,8-22,12.61-32.72,9.78-19.44,11.21-39.78,4.1-60.43a71.34,71.34,0,0,0-5.7-12.71l.25-.16Z"/><path class="cls-21" d="M1129.43,612.45a491.21,491.21,0,0,1,14.31,48.27c2,9.3,4.38,18.87,3.3,28.47a148.45,148.45,0,0,1-15.56,35.88,78.52,78.52,0,0,1-10.08,13.53l-.23-.2c6.37-9.18,11.07-19.27,15.41-29.48,2.62-6.37,5.28-12.83,7.49-19.35a10.91,10.91,0,0,0,.4-1.85c.94-8.87-1-17.84-2.64-26.58-3.4-16.39-7.81-32.57-12.69-48.59l.29-.1Z"/><path class="cls-21" d="M1170.15,726.56c-1.71-4.31-1.84-9-2.16-13.56s-.2-9.16-.06-13.74c.09-9.11,1.91-18.12,1.47-27.24-.24-6.81-1-13.59-1.67-20.37-1-11.3-2-22.78-2.59-34.13l.29,0c4.46,20.13,7,40.77,6.17,61.43-1.64,13.55-3.4,27.21-2.44,40.88a25.74,25.74,0,0,0,1.26,6.65l-.27.12Z"/><path class="cls-21" d="M1227.43,610.54A132,132,0,0,1,1212,643c-.82,1.28-2.54,3.74-3.45,5-5.94,8-10,17.09-14,26.22-6.32,14.68-11.78,29.71-17.68,44.59a215.89,215.89,0,0,1-10,22c-7.63,13.72-10.87,29.77-10.39,45.69l-.3,0a79.38,79.38,0,0,1,8-47.15c1.82-3.5,3.51-7.09,5.1-10.73,8.15-18.25,15.18-37,23.4-55.22,4.19-9.07,8.54-18.32,14.75-26.25.91-1.14,2.71-3.59,3.54-4.8a131.45,131.45,0,0,0,16.17-31.91l.29.08Z"/><path class="cls-21" d="M1212.43,662.46c2.41,10.51,2.31,22.15-2.83,31.89a88.76,88.76,0,0,0-4.5,7.67,37.77,37.77,0,0,0-2.49,8.35,46.37,46.37,0,0,1-4.39,14,65.89,65.89,0,0,1-3.92,6.25c-5.92,7.75-13,14-19.5,21.2a134.93,134.93,0,0,0-9.38,10.77l-.27-.14c5.12-9.55,12.59-17.65,19.77-25.68,3.94-4.21,8-8.69,11-13.68a42.94,42.94,0,0,0,4.59-13.15,35.76,35.76,0,0,1,3.8-10.34c1.71-3,4.17-5.94,5.51-9.14,3.76-8.67,4.09-18.67,2.35-27.9l.29-.08Z"/><path class="cls-21" d="M1254.42,711.56A152.88,152.88,0,0,1,1241.88,737a72.13,72.13,0,0,1-14.28,18.21c-1.32,1.11-2.81,2.36-4.21,3.36l-.21-.22c5.39-7.81,11.15-15,16.68-22.66a187.61,187.61,0,0,0,14.29-24.29l.27.12Z"/><path class="cls-21" d="M1254.43,720.53c-4,20.08-8.49,40.16-17,58.92-2.35,4.75-4.77,9.47-9,13-8.46,6.71-20.28,8-30.34,4.59-4.91-1.65-9.71-4.33-12.92-8.46l.23-.2a30,30,0,0,0,13.27,6.64c9.54,2.35,20,.86,27.95-4.92,3.79-2.91,6.39-7.49,8.64-11.74,8.89-18.22,14.13-38.22,18.88-57.91l.29.06Z"/><path class="cls-21" d="M1267.43,762.5c-.44,23.23-6.36,56.21-25.45,71.46a39.2,39.2,0,0,1-9.63,5.67l-.14-.26a62,62,0,0,0,10.22-8.94c11.45-12.95,18.12-29.38,21.59-46.2a146.94,146.94,0,0,0,3.11-21.73Z"/><path class="cls-21" d="M1263.4,801.41c9.11,12.65,14.16,29.89,8,44.89-4,10-12.13,17.61-20.71,23.78-8.42,5.59-20.14,11-30.42,8.24-5.21-1.5-9.84-7.59-7.17-12.88l.28.12a7.53,7.53,0,0,0,1.45,7c5,6.22,14,4.15,20.6,1.86,16-6.25,32.85-18.25,36.43-36.11,2.46-12.72-1.72-26-8.74-36.7l.24-.18Z"/><path class="cls-21" d="M1151.41,809.43c5.83,8.11,13.7,14.56,21.94,20.08,6.29,4,13,7.36,19.42,11.1,2.2,1.2,4.41,2.37,6.57,3.75l-.11.28c-15-3.26-28-12.47-38.76-23.12-1.71-1.76-3.49-3.76-5-5.69a44.79,44.79,0,0,1-4.3-6.26l.26-.14Z"/><path class="cls-21" d="M1218.2,896.63c-13.65-9.07-27.08-19.47-35.42-34a296,296,0,0,0-15.21-30.45c-2-3.45-4-6.78-5.89-10.39l.28-.11a132.5,132.5,0,0,1,13.92,19.41,92.78,92.78,0,0,1,6.44,13.59c.76,2.17,1.76,4.75,2.66,6.83,7.55,14.29,20.53,25.25,33.39,34.81l-.17.26Z"/><path class="cls-21" d="M1289.43,859.52a56,56,0,0,1-1.69,11.86c-.59,2.45-1.18,5-2.83,7.07a10.61,10.61,0,0,1-3.51,3.15l-.23-.2a64.82,64.82,0,0,1,4.29-10.77,102.44,102.44,0,0,0,3.68-11.15l.29,0Z"/><path class="cls-21" d="M1179.36,903.37a112.58,112.58,0,0,0,30.47,11.54c7.3,1.78,13,7,19.59,10.05,9.72,4.9,20.14,7.24,30.88,9.39l0,.3c-1.83,0-3.67,0-5.51-.06-9.25-.48-18.58-2.43-26.73-7-3.27-1.82-6.3-4-9.28-6a33,33,0,0,0-10.7-5.16c-10.26-2.54-19.87-7.35-28.84-12.79l.15-.26Z"/><path class="cls-21" d="M1308.43,918.54c-6.24,20.5-21.85,51.15-45.59,53.8a31.25,31.25,0,0,1-10.58-.69l0-.3a48.18,48.18,0,0,0,10.18-1.09c16.77-4.32,28.75-18.38,36.9-33a128.89,128.89,0,0,0,8.76-18.79l.29.08Z"/><path class="cls-21" d="M1182.39,907.39c7.13,6.91,14.32,14.69,17.23,24.42.43,1.58.34,3.41,1.27,4.82a13,13,0,0,0,4.95,4.19,59.39,59.39,0,0,0,12.94,4.75c9,2.41,18.27,3.64,27.45,5.86,4.38.83,8.7,3.26,13.21,2.48s7.86-4.43,9.7-8.45l.29.08c-1.21,4.7-4.58,9.16-9.52,10.43s-9.57-.87-14.33-1.61c-10.37-2.36-44.17-7.58-46.93-18.7-.06-.45-.24-1.39-.29-1.84-.76-5.71-3.88-10.84-7.14-15.51a89.45,89.45,0,0,0-9-10.7l.21-.22Z"/><path class="cls-21" d="M1320.42,940.57a76.67,76.67,0,0,1-11.37,17.1c-3.81,4.69-8.52,8.87-14.22,11.1-.82.31-1.63.62-2.47.86l-.15-.26c5-4.73,10.08-8.73,15.1-13.35a92,92,0,0,0,12.84-15.59l.27.14Z"/><path class="cls-21" d="M1179.35,937.37c9.82,5,19.32,10.58,27.56,18a32.28,32.28,0,0,1,6.21,7.36c3.16,7,7.18,13.51,13.24,18.64l-.15.26a25.08,25.08,0,0,1-7-4.59A33.11,33.11,0,0,1,1210.8,965a18.32,18.32,0,0,0-.81-1.67c-4-6.87-10.8-11.85-17.16-16.62-4.38-3.22-8.95-6.2-13.62-9l.14-.26Z"/><path class="cls-21" d="M1050.14,894.52c-4.7-38.06-4.64-76.54-4.78-114.84l.82-.1L1139.11,768l1.54-.19c0,.12,1.1,14.91,1.18,15.56.39,5,.7,10,1.06,15.05a135.5,135.5,0,0,1-23.23,8.7,89.11,89.11,0,0,1-23.56,3.53c-1.47,0-4.44-.13-5.91-.21a198.68,198.68,0,0,0-40.87,3.19l-.07-.3a180.21,180.21,0,0,1,35-4.89c4.31-.18,8.92,0,13.23-.1,11.15-.57,22-3.65,32.39-7.66,3.62-1.38,7.24-2.89,10.68-4.57l-.85,1.48c-.33-4.67-.71-9.33-1-14l-.94-14,1.66,1.37-93.07,10.44.82-.91c-.55,37.84-.29,76.84,2.93,114Z"/><path class="cls-21" d="M1138.43,794.48c2.92,26.64,1.2,53.73-3.27,80.11-1.45,8.92-3.57,18.1-5.68,26.92-12,5.07-24.61,8.66-37.68,9.27a173.1,173.1,0,0,0-18.78.72c-4.52.5-9.47,1.33-14,2a12.27,12.27,0,0,1-4.79.11l.09-.28a13.73,13.73,0,0,0,4.56-.59l4.58-1.14a115.62,115.62,0,0,1,18.75-3.15c2.71-.19,6.68-.35,9.44-.46,12.35-1,24.54-4.39,36.07-8.8l-.8.92,1.69-6.44a327.35,327.35,0,0,0,10.22-72.49,222.13,222.13,0,0,0-.71-26.69l.3,0Z"/><path class="cls-21" d="M1089.36,809.77c-1.5,17.37-.22,34.75.91,52.11.55,11.62.19,23.26-.4,34.86-.28,5.8-.69,11.6-.76,17.34,0,2.83,0,5.46,1.42,8s2.94,5,3.75,8c1.7,6-.18,12.18-2.69,17.61-.85,1.94-2.07,3.75-2.81,5.72-1,3.25-.45,6.67.21,10.1,2.1,9.8,6.21,19.57,7,29.74,1.55,12.75,1,26.08,5.81,38.14a25.74,25.74,0,0,0,4.33,7,41.59,41.59,0,0,1,9,15.19c2.61,8.33,4.47,17,4.21,25.81h-.3a73.72,73.72,0,0,0-2.92-17c-1.57-5.47-3.22-11-6.47-15.77s-8.08-8.69-10.27-14.22c-5.28-12.22-5-25.89-6.52-38.87-.78-10.18-4.64-19.47-6.6-29.54-.65-3.61-1.18-7.7.05-11.42.8-2.1,2.09-3.92,3-5.94a36.54,36.54,0,0,0,2.84-7.9,17.45,17.45,0,0,0-.08-8.1c-.66-2.65-2.19-5-3.5-7.73s-1.64-6-1.52-8.93c.74-17.41,2.52-34.7,1.91-52.13-.48-11.57-1.29-23.21-1-34.8.12-5.81.36-11.61,1-17.4l.3,0Z"/><path class="cls-21" d="M1057.22,967.37c23.5-13,46.59-27.4,66.22-45.78,6.38-6.08,12.77-12.61,15.7-21.12l.29.06c-2.81,17-21.83,30.94-35.17,40.16-7.47,5.1-15.16,9.85-23,14.35s-15.81,8.67-23.93,12.59l-.13-.26Z"/><path class="cls-21" d="M1073.17,1050.41c17.68-25,34.17-51.17,46.53-79.25,4.84-11.18,9.33-22.57,12-34.48a64.32,64.32,0,0,0,1.47-18.16l.29,0a52.36,52.36,0,0,1,.31,18.56c-2.76,18.49-10.9,35.59-19.77,51.85-5.89,10.84-12.35,21.35-19.1,31.65s-13.94,20.31-21.47,30l-.23-.18Z"/><path class="cls-21" d="M1119.15,1038.43c12-24.89,20.84-51.38,24-78.93h.3a60.81,60.81,0,0,1,.49,7.87,71.74,71.74,0,0,1-.51,7.89c-.86,8.75-3.65,17.18-6.58,25.38-2.33,6.58-5,13-7.92,19.35s-6,12.55-9.49,18.58l-.27-.14Z"/></g><g id="sleeve"><polygon class="cls-25" points="1247.28 1047.5 1212.28 1080.5 1356.28 1080.5 1336.28 1021.5 1247.28 1047.5"/><path class="cls-26" d="M1339.28,1054.5s-7,7-37,4a44.12,44.12,0,0,0-43,21l-47,1c3-9-2-21-5-36s5-32,5-32,9-5,14-9,17.43-1.25,33-4c17-3,2.56-15.13,33-6,20,6,18-9,55,6,0,0,12-4,13,13s1,35,6,43-4,25-13,24,3-12-27-23"/><path class="cls-27" d="M1226.28,1003.5c5-4,17.43-1.25,33-4,17-3,2.56-15.13,33-6,20,6,18-9,55,6,0,0,12-4,13,13s1,35,6,43-4,25-13,24,3-12-27-23c0,0-32-5-41,1s-37,23-42,22c0,0,9-25,42-28s35-9,31-16-22-7-24-42"/><path class="cls-28" d="M1279.28,1061.5s39,4,47,11a35.74,35.74,0,0,0,18,8"/><path class="cls-28" d="M1274.28,1079.5s41-6,48-1"/><rect class="cls-29" x="1241.28" y="981.5" width="8" height="59" rx="4" transform="translate(-175.03 265.63) rotate(-11.38)"/><rect class="cls-29" x="1299.72" y="975.63" width="8" height="55.81" rx="3.89" transform="translate(-199.41 334.67) rotate(-13.6)"/><rect class="cls-29" x="1340.72" y="978.63" width="8" height="55.81" rx="3.89" transform="translate(-154.31 248.71) rotate(-10)"/><path class="cls-27" d="M1247.31,1000.77l9-.27s6,32-2,34"/></g><g id="bright_tshirt" data-name="bright tshirt"><path class="cls-30" d="M823.28,616.5s-5,50,16,80,29,41,29,41S818.28,640.5,823.28,616.5Z"/><path class="cls-30" d="M839.28,606.5s16,20,20,75c0,0-15-12-20-46S839.28,606.5,839.28,606.5Z"/><path class="cls-30" d="M857.28,619.5s18,42,9,69c0,0,13,0,27,25,0,0-8-18-12-53S857.28,619.5,857.28,619.5Z"/><path class="cls-30" d="M1002.28,844.5s-65,84-76,116,57,12,76-3,18-24,18-24S1004.28,865.5,1002.28,844.5Z"/><path class="cls-30" d="M1036.28,1078.5s25-89,0-137-30.76-76.44-30.76-76.44,19.76,83.44,24.76,119.44S1036.28,1078.5,1036.28,1078.5Z"/><path class="cls-30" d="M914.28,997.5s-7,31-17,38,14,2,26,7,92,17,110-18c0,0,3-43-13-58S980.28,1018.5,914.28,997.5Z"/></g><g id="wrink_tshirt" data-name="wrink tshirt" class="cls-24"><path d="M823.06,573.81c10.32,4.46,14.67,16.33,15.29,26.84.43,7.35-.51,14.68-1,22a73.39,73.39,0,0,0,1.41,21.17,107.5,107.5,0,0,0,6.81,19.31c2.78,6.25,5.81,12.41,9,18.49A400,400,0,0,0,903,754.27c.62.74,1.68-.32,1.06-1.06a399.83,399.83,0,0,1-46.26-68.76q-4.86-9.13-9.24-18.53a124.08,124.08,0,0,1-7.6-19.84,68.92,68.92,0,0,1-2.13-21.5c.36-7.38,1.35-14.74,1.14-22.14-.33-11.53-4.68-25-16.11-29.93-.87-.38-1.64.92-.75,1.3Z"/><path d="M849.58,602.54A203.26,203.26,0,0,1,867,671.64c.47,6.71.61,13.45.41,20.18a.75.75,0,0,0,1.5,0,205,205,0,0,0-10.59-71.08q-3.26-9.66-7.46-19c-.4-.88-1.69-.11-1.3.76Z"/><path d="M860.67,611.49c14.21,12.08,17.74,31.62,19.87,49.18,1.22,10.08,2.19,20.27,4.92,30.09A63.81,63.81,0,0,0,898,715a61.35,61.35,0,0,0,23.46,17.17c.89.37,1.28-1.08.4-1.44a59.85,59.85,0,0,1-21.42-15.2,61.61,61.61,0,0,1-13.25-24.33c-5.37-18.56-4.23-38.35-10.3-56.76-3-9.11-7.73-17.75-15.11-24-.74-.62-1.8.44-1.07,1.06Z"/><path d="M824.55,663.27c.43,16.75,9.17,31.62,18.23,45.18,10.5,15.72,21.27,31.27,31.91,46.89l18.38,27c.54.8,1.84,0,1.29-.75Q878.3,758,862.24,734.4q-7.93-11.65-15.86-23.3A188.69,188.69,0,0,1,833.46,690c-4.18-8.33-7.17-17.31-7.41-26.69a.75.75,0,0,0-1.5,0Z"/><path d="M1043.06,615.94q-8.65,22.89-17.32,45.79c-4.53,11.9-9.41,23.95-17.06,34.24a55,55,0,0,1-15.48,14.38c-.82.5-.07,1.8.76,1.3,10.94-6.63,18.53-17.18,24.22-28.43,6.48-12.82,11.09-26.59,16.16-40l10.16-26.88c.35-.91-1.1-1.3-1.44-.4Z"/><path d="M1039.85,649l-2.44,35.68c-.06,1,1.44,1,1.5,0l2.44-35.68c.06-1-1.44-1-1.5,0Z"/><path d="M1018.27,684a221.65,221.65,0,0,0,6.42,111.25c.29.91,1.74.52,1.45-.4a221.21,221.21,0,0,1-9.87-85.86,218.72,218.72,0,0,1,3.45-24.59c.19-1-1.26-1.35-1.45-.4Z"/><path class="cls-30" d="M996.91,713.87c.43,54.36.88,109,10.16,162.59,6.06,35,15.83,69.2,22.39,104.09s9.87,71,2.89,105.78"/><path d="M1001.61,810.46c-14.47,13.73-28.3,28.12-42.12,42.51-.67.7.39,1.76,1.06,1.06,13.82-14.39,27.65-28.78,42.13-42.51.7-.67-.36-1.73-1.07-1.06Z"/><path d="M1001.57,843.11a117,117,0,0,1-53.28,52.63c-.87.42-.11,1.71.75,1.29a119.09,119.09,0,0,0,45.07-38.51,116,116,0,0,0,8.76-14.65c.43-.86-.86-1.62-1.3-.76Z"/><path d="M894.78,955.05c8.89,1.86,15.74,8.15,22.59,13.69A70.87,70.87,0,0,0,941.63,982a65.74,65.74,0,0,0,16,2.69c1,0,1-1.46,0-1.5a64.41,64.41,0,0,1-27.85-7.73c-7.95-4.33-14.29-10.75-21.67-15.89a35.6,35.6,0,0,0-12.92-6c-.94-.19-1.34,1.25-.4,1.45Z"/><path d="M1024.23,967c-14.61,1-26.25,10.65-37.22,19.41-6,4.82-12.14,9.57-19,13.2a80.39,80.39,0,0,1-23.28,8,79.59,79.59,0,0,1-28,.09c-.94-.17-1.35,1.28-.4,1.44a82.2,82.2,0,0,0,47.66-6A96.63,96.63,0,0,0,983.69,991c5.94-4.61,11.66-9.52,17.92-13.7,6.81-4.56,14.34-8.15,22.62-8.73,1-.07,1-1.57,0-1.5Z"/><path d="M870.17,1003.29c17.65-.22,32.14,11.46,46.2,20.59,7,4.55,14.38,8.78,22.48,11,8.55,2.38,17.52,2.37,26.26,1.1,10.28-1.49,20.23-4.67,30.08-7.89.91-.29.52-1.74-.4-1.44-17,5.57-35.54,11.53-53.56,7.29-16.84-4-29.74-16.36-44.57-24.49-8.15-4.46-17.08-7.81-26.49-7.7a.75.75,0,0,0,0,1.5Z"/><path d="M1019.61,1027c-14.92,17.9-38.62,27.48-61.77,26.07a69.62,69.62,0,0,1-18.94-3.83c-.91-.32-1.31,1.13-.4,1.45,22.32,7.85,48.09,3.87,67.55-9.39a71.32,71.32,0,0,0,14.62-13.24c.62-.73-.44-1.8-1.06-1.06Z"/><path d="M821.28,610.25a.75.75,0,0,0,0-1.5.75.75,0,0,0,0,1.5Z"/></g><g id="red"><path class="cls-20" d="M1087.28,573.5s-25,62-41,98-27,143-28,164,22,105,22,105-8-107-7-122,42.48-116,53-137c2-4,13.32-21.53,22-30,13.32-13,27.32-26.76,37-31,0,0-25-49-54-59Z"/><path class="cls-21" d="M1087.28,573.5c-13.91,35-28.73,69.62-43.07,104.42-.61,1.52-1.31,4-1.81,5.64-.55,1.9-1.2,3.77-1.67,5.69-11.07,44.16-15.9,89.7-19.9,135-.68,7.87-1.09,15.43.29,23.31,2.34,15.56,6,31,9.65,46.35s7.72,30.71,11.86,46l-4.77.82c-2.74-40.69-6.61-81.33-6.82-122.15a59.27,59.27,0,0,1,2.68-11.27c4.47-14.22,9.92-28,15.36-41.8,11.05-27.51,22.32-54.86,35-81.69,3.22-6.73,7.69-12.79,12-18.83a111.45,111.45,0,0,1,14.7-16.74c5.35-5.11,10.7-10.23,16.29-15.1s11.33-9.73,18.11-12.87l-.14.41a203.82,203.82,0,0,0-22.29-34c-8.64-10.29-18.6-20.38-31.45-25.12.1-.1-4,12-4,12Zm0,0s4-12.07,4-12c12.89,4.69,22.9,14.77,31.59,25a209.05,209.05,0,0,1,22.82,34.12c-6.77,3.16-12.5,8.19-18.07,13.12-8.05,7.54-16.27,15.06-23.53,23.39a187,187,0,0,0-15.73,22.64c-7.49,14.78-13.36,30.37-19.74,45.68-10.91,27.41-21.9,54.91-30.73,83a57.74,57.74,0,0,0-2.38,10.29c-.11,3.51,0,7.22.14,10.88.95,22.13,2.46,44.26,4,66.37l3.08,44.26-4.77.82q-6.21-23-11.58-46.22c-3.51-15.5-7-31-9.09-46.88-1.25-7.87-.74-16.18.11-24.11,4.83-45.33,10.48-90.87,22.37-135,.51-1.91,1.2-3.79,1.79-5.68.54-1.59,1.25-4.11,1.92-5.65,14.8-34.62,29.83-69.17,43.82-104.14Z"/><path class="cls-31" d="M1096.78,622c-16,36-77.5,192.5-78.5,213.5s22,105,22,105-8-107-7-122,42.48-116,53-137c2-4,13.32-21.53,22-30,13.32-13,27.32-26.76,37-31,0,0-25-49-54-59"/><path class="cls-21" d="M1103.28,606.5c7.28-1.71,15.71,5.42,14,13-5-4.61-9.42-8-14-13Z"/><path class="cls-21" d="M1045.28,705.5c9.78,2.38,18.38,14.1,14,24-3-9.28-8.8-15.91-14-24Z"/><path class="cls-32" d="M809.28,552.5s-39,44-51,50a140.35,140.35,0,0,0-22,14s29,42,43,72,32,75,46,89,52,91,50,112,12-51,0-69-9-30-12-39c-1.41-4.25-12.49-21.6-20.27-41.38-8.69-22.14-14.26-47.33-17.73-60.62C813.28,633.5,791.28,575.5,809.28,552.5Z"/><path class="cls-21" d="M809.28,552.5c-14.08,16-28.24,32.3-44.35,46.39a40.41,40.41,0,0,1-7.71,5.23,138.59,138.59,0,0,0-20.16,13.35l.25-1.68c15.77,23.06,31.06,46.4,43.45,71.53,6,12.61,11.63,25.33,17.47,37.94,7.39,15.61,14.41,31.48,24.42,45.48,2,2.79,4.53,5.2,6.72,7.84,12.82,16.93,21.85,36,30.88,55,2.9,6.37,5.67,12.8,8.23,19.33,3.77,9.9,7.53,19.92,9,30.55a29.84,29.84,0,0,1,.25,5.68c0,.52-.06.92-.1,1.34l-.09,1.23c0,.37,0,.83,0,1,0,0,.07.17-.11-.41,1.18-.8-4.27-2.18-4-.77a2.52,2.52,0,0,0-.34.48c0,.12,0-.11.08-.25a169.68,169.68,0,0,0,3.18-20.17c1.34-13.49,2.39-27.56.1-40.89a25.83,25.83,0,0,0-3.12-8.92,72.78,72.78,0,0,1-5.25-9.43,65,65,0,0,1-5.29-20.82c-.46-3.67-.67-7.46-2.2-10.76-1-2.08-3.06-5.89-4.17-8-3.31-6.14-6.58-12.34-9.53-18.7-12-25.34-17.64-53-24.55-80C817,654,810.9,634,806.52,613.53c-3.59-18.12-9.23-45.36,2.76-61Zm0,0c-14,19.1-1.52,59.39,4.2,80.8,5.79,20,12,40.05,17,60.3,5.25,20,11,40.19,20.13,58.79,3,6.21,6.27,12.31,9.61,18.4,1.16,2.15,3.32,6,4.36,8.17,1.82,3.81,2.14,8.07,2.67,12.1a60.41,60.41,0,0,0,5,19.42,70.21,70.21,0,0,0,5,8.75,29.83,29.83,0,0,1,3.89,10.61c2.48,14.14,1.42,28.23.08,42.33-.84,7.1-1.58,14-3.31,21a5.74,5.74,0,0,1-.35,1,2.87,2.87,0,0,1-.5.76c.2,1.53-5.39.09-4.23-.83a3.24,3.24,0,0,1-.21-1,23.93,23.93,0,0,1,.12-3,25.34,25.34,0,0,0,0-4.77c-1.31-10.52-5.16-20.62-8.9-30.57-2.5-6.44-5.21-12.8-8.07-19.1-8.93-18.94-18.1-38.45-30.84-55.07a75.18,75.18,0,0,1-6-7.09c-17.73-26.18-28.17-56.24-41.52-84.62-11.87-25-26.87-48.6-42.16-71.67l-.66-1a140,140,0,0,1,23.12-14.48,52.81,52.81,0,0,0,8.48-6.1c15.34-13.32,29.21-28.33,43.08-43.14Z"/><circle class="cls-29" cx="782.28" cy="621.5" r="4"/><ellipse class="cls-29" cx="821.28" cy="743.5" rx="4" ry="5"/></g><path class="cls-33" d="M847.28,455.5s96-45,187-9l4,89L861.2,521Z"/><g id="head"><g id="ears"><path class="cls-34" d="M1025.26,408.82s-3.12-32.21,9.35-47.79,19.74-21.82,24.93-16.62,10.39,17.66,2.08,36.36c0,0-10.13,18.56-22.86,30.13C1027.34,421.29,1025.26,408.82,1025.26,408.82Z"/><g id="left_side_ear" data-name="left side ear"><path class="cls-17" d="M1048.7,376.74c-2.08,11.41-4.36-.11-4-4.57a24.18,24.18,0,0,1,1.28-7.52c1.22-5,10.56-15.51,12.46-5.4.7,3.76.35,7.6.35,11.39a28.31,28.31,0,0,1-.87,7.51c1-4.93.38-10.08.38-15.07-.26-2.26-.31-7.5-3.4-7.42-1.79.29-3.19,1.69-4.49,2.92a16.63,16.63,0,0,0-3.83,6.28,27.41,27.41,0,0,0-.69,14.78,4,4,0,0,0,.69,1.66c1,.73,2-3.83,2.15-4.56Z"/><path class="cls-17" d="M1054.35,361.18c2.54-1.1,3.84,3.7,4.07,5.5a14.87,14.87,0,0,1,.18,2.5c-.28-.8-.48-1.6-.72-2.39-.56-1.6-1.28-5.93-3.53-5.61Z"/><path class="cls-17" d="M1050.11,372.49c-2.47-2.47,2.89-3.53,4-1.56a4.33,4.33,0,0,1,.47,2.26c.2,3,.91,6.09.2,9.14-.42,1.55-1.77,2.5-2.63,3.78-3.26,4.16-7.42,10.62-10.73,14.74-1.64,2-6.94,3-6.43-.9a6,6,0,0,1,2.64-5.05,6.19,6.19,0,0,0,2.9-3.21,27.22,27.22,0,0,0,2-11c-.1-.59-.06-1.88-.9-1.8.84-.12.87,1.21,1,1.79a26.22,26.22,0,0,1-1.71,11.22,6,6,0,0,1-2.07,2.83,6,6,0,0,0-3.17,4.18,9.16,9.16,0,0,0-.06,2.15c.9,1.92,4.22.58,5.3-.65,3.19-4.12,7.49-10.54,10.72-14.64.81-1.21,2.17-2.14,2.6-3.56.74-2.9.1-6,0-9,.11-1.61-.36-3-2.18-3.14-1.63-.08-3.5.7-1.92,2.42Z"/><path class="cls-35" d="M1058.6,368.25s-1.42-9.9-4.95-6.36-4.25,4.24,0,9.19-2.83,16.26-2.83,16.26-5.66,10.61-9.9,12.73-6.36.71-5.66-2.12,4.25-3.54,5.66-8.49a12.05,12.05,0,0,0-1.41-9.19s1-15,2.43-10.68c3.22,10,.39,19.87,4.64,16.34s4.24-9.19,2.82-11.31-5.65-11.32,0-15.56,7.78-4.24,9.2-.71S1058.6,368.25,1058.6,368.25Z"/></g><path class="cls-34" d="M867.21,408.82s3.12-32.21-9.35-47.79-19.74-21.82-24.93-16.62-10.39,17.66-2.08,36.36c0,0,10.13,18.56,22.86,30.13C865.13,421.29,867.21,408.82,867.21,408.82Z"/><g id="left_side_ear-2" data-name="left side ear"><path class="cls-17" d="M843.77,376.74c.21.79,1.12,5.26,2.15,4.56a4,4,0,0,0,.69-1.66,27.41,27.41,0,0,0-.69-14.78,16.63,16.63,0,0,0-3.83-6.28c-1.3-1.23-2.7-2.63-4.49-2.92-3.09-.09-3.14,5.17-3.4,7.42,0,5-.66,10.14.38,15.07a28.31,28.31,0,0,1-.87-7.51c0-3.79-.35-7.63.35-11.39,1.91-10.11,11.24.4,12.46,5.4a24.18,24.18,0,0,1,1.28,7.52c.33,4.45-1.95,16-4,4.57Z"/><path class="cls-17" d="M838.12,361.18c-2.25-.33-3,4-3.53,5.61-.24.79-.44,1.59-.71,2.39a13.89,13.89,0,0,1,.17-2.5c.22-1.79,1.54-6.6,4.07-5.5Z"/><path class="cls-17" d="M850.84,378.86c-.83-.09-.8,1.23-.9,1.8a27.22,27.22,0,0,0,2,11,6.15,6.15,0,0,0,2.9,3.21,5.89,5.89,0,0,1,2.54,3.88c.24,1.82.38,3.63-2,3.81a5.67,5.67,0,0,1-4.35-1.74c-.93-1-1.93-2.58-2.76-3.68l-5.27-7.41c-1.54-2.19-3.16-4.25-4.86-6.32a5.44,5.44,0,0,1-.47-1.11c-.71-3.05,0-6.1.2-9.14a4.33,4.33,0,0,1,.47-2.26c1.08-2,6.44-.91,4,1.56,2.3-2.43-2.79-3.28-3.75-1.42a4,4,0,0,0-.34,2.14c-.08,1.53-.27,3-.34,4.54,0,1.84-.16,3.78.74,5.4,3.15,3.55,7.38,9.71,10.22,13.61.76,1,1.84,2.71,2.67,3.62,1.1,1.24,4.39,2.56,5.3.65a9.15,9.15,0,0,0-.06-2.15,6.09,6.09,0,0,0-3.17-4.19,6,6,0,0,1-2.07-2.82,26.06,26.06,0,0,1-1.7-11.22c.12-.59.13-1.9,1-1.79Z"/><path class="cls-35" d="M833.87,368.25s1.42-9.9,5-6.36,4.25,4.24,0,9.19,2.83,16.26,2.83,16.26,5.66,10.61,9.9,12.73,6.36.71,5.66-2.12-4.25-3.54-5.66-8.49a12.05,12.05,0,0,1,1.41-9.19s-1-15-2.43-10.68c-3.22,10-.39,19.87-4.64,16.34s-4.24-9.19-2.82-11.31,5.65-11.32,0-15.56-7.78-4.24-9.2-.71S833.87,368.25,833.87,368.25Z"/></g><path class="cls-34" d="M851.44,519.18a34.48,34.48,0,0,0,32.63-35.4l-.1-77.56h126.74V489.5a31,31,0,0,0,31,31"/></g><path class="cls-36" d="M839.3,248.83l3.92,103a36.56,36.56,0,0,0,2.42,11.78l16.43,42.71c4.85,12.63,11.14,24.16,20.5,33.92l37.11,32.3c14.1,14.7,34.36,15.11,49,.9l35.55-30.5c11.13-10.82,16.52-23,21.75-37.62l15.13-42.24a36.43,36.43,0,0,0,2.11-10.63l4.94-103.61h0a227.94,227.94,0,0,0-206.33-1.24Z"/><path class="cls-37" d="M839.3,248.83l4.08,100.33a61.08,61.08,0,0,0,.42,6.22c.51,4.17,2,8.05,3.57,11.93,1.44,3.61,9.66,25.16,11.29,29.28,2.67,6.89,6.25,16.66,9.75,23.07A88.5,88.5,0,0,0,882.82,440L920,472.23a41.08,41.08,0,0,0,7.31,6,31.93,31.93,0,0,0,17.82,5.15,33,33,0,0,0,17.67-5.7,46.12,46.12,0,0,0,3.72-2.89c8.85-7.71,23.58-20.32,32.5-28a83.87,83.87,0,0,0,7-6.38c11.11-11.55,16.57-26.89,21.79-41.74l12.89-35.9a36,36,0,0,0,2-9.18c1-19.87,4.07-84,5.11-104.76-14.59-6.83-33.23-14.78-50.4-18.56-52.76-13-109.7-6.06-158.05,18.58Zm0,0c48.44-25,105.18-32.17,158.2-19.2a228,228,0,0,1,50.78,18.87l.21.11v.24c-1,21.26-3.93,84.64-4.91,104.8a37.6,37.6,0,0,1-2,9.42L1028.74,399c-5.2,15-10.8,30.45-22,42.07a84,84,0,0,1-7.09,6.42c-9,7.65-23.67,20.26-32.57,28a47.1,47.1,0,0,1-3.81,2.94,33.88,33.88,0,0,1-18.14,5.81,32.64,32.64,0,0,1-18.27-5.31c-4.63-3.06-39.29-34.1-44.51-38.41A89.52,89.52,0,0,1,867.82,420c-3.59-6.37-7-16.31-9.74-23.16l-11.23-29.3a48.87,48.87,0,0,1-3.58-12.05,60.37,60.37,0,0,1-.41-6.29L839.3,248.83Z"/><g id="consi"><path class="cls-38" d="M862.15,318.44s-16.62,0-8.31,49.86c0,0-14.68-18.7-14.68-21.81S837.08,335.06,834,333s5.19-7.27,0-10.39,1-8.31-1-14.54-1.32-17.71-.66-17.69S862.15,318.44,862.15,318.44Z"/><path class="cls-38" d="M1037.73,312.2s9.35-.52,1,49.35c0,0,13.94-17.2,14.55-20.26,1-5.19,3.12-8.31,6.23-10.39s-2.07-10.39,3.12-13.5-1-8.31,1-14.55,1.32-17.7.66-17.68S1037.73,312.2,1037.73,312.2Z"/></g><path class="cls-39" d="M1032,204.68s8.28,4.07,10.39,6.23c4.88,5,5.2,8.31,5.2,8.31,13.5,11.43,7.27,15.58,7.27,15.58l20.78,24.94c-7.28,0-12.47-5.2-12.47-5.2,4.15,8.31,3.12,26,3.12,30.13s-2.6,2.6-.52,10.91-29.09,22.86-29.09,22.86l3.63-11.95-5.24-3a1.34,1.34,0,0,1,0-2.32l5.24-3-5.45-2.34a1.34,1.34,0,0,1-.42-2.18l4.83-4.83-6.56-5.63a1.34,1.34,0,0,1-.38-1.48l2.31-6.17a1.33,1.33,0,0,0-.79-1.73l-8.61-3.13a1.34,1.34,0,0,1-.67-2l3.23-5.16a1.35,1.35,0,0,0-1-2l-10.27-1.46a1.34,1.34,0,0,1-.88-2.13h0a1.34,1.34,0,0,0-1.17-2.14l-9.27.66a1.34,1.34,0,0,1-1.3-1.93l2-4a1.34,1.34,0,0,0-1.37-1.93l-10.81,1.44a1.33,1.33,0,0,1-1.42-1.82l.24-.6a1.34,1.34,0,0,0-1.59-1.79l-17.17,4.52,2.57-3.6a1.34,1.34,0,0,0-1.58-2l-24.37,9.57a1.34,1.34,0,0,1-1,0c-2.57-1.12-15.19-4.06-16.11-5s-12.47-2.08-16.63-3.12c-2.6-.65-6-1.71-8.22-2.41a1.34,1.34,0,0,0-1.72,1.54l.25,1.22a1.33,1.33,0,0,1-1.42,1.59l-9.73-.74a1.33,1.33,0,0,0-1.37,1.75l1.44,4.32h-14a1.34,1.34,0,0,0-.87,2.36l2,1.72a1.34,1.34,0,0,1-.79,2.35l-12.74.75a1.34,1.34,0,0,0-1.22,1.66l2.46,9.86a1.33,1.33,0,0,1-.7,1.52l-7.55,3.78a1.34,1.34,0,0,0-.24,2.24l2.31,1.85a1.35,1.35,0,0,1,.05,2.06l-7.11,6.22,7.27,4.15-4.16,5.2,3.12,4.15c-5.19,1-1.56,15.07-1.56,15.07S827.3,310.8,830,302.85c2.08-6.23,1-7.27,1-7.27s-2.6-16.1.52-20.26c0,0-7.28,15.58-7.28,26,0,0-3.11-27,10.39-44.67,0,0-4.15,8.31-18.7,7.27a85.7,85.7,0,0,0,14.55-17.66s4.15-5.19,8.31-7.27c0,0-1-22.86,21.81-29.09,0,0,0-12.47,11.43-13.5,0,0,8.31-6.24,11.43-10.39s16.62-9.35,24.93-5.2c0,0,14.55-22.85,31.17-5.19,0,0,2.08-11.43,15.58-6.24,0,0,12.47-5.19,19.74,6.24,0,0,11.43-3.12,14.55,5.19,0,0,8.31-4.15,14.54,6.24C1004,187,1024.74,187,1032,204.68Z"/><path class="cls-17" d="M1032,204.68a68,68,0,0,1,9.56,5.49c2.71,2.41,5.21,5.46,6.07,9.05,3.59,3.08,12.14,10.77,7.27,15.65-.09-.53,20.82,24.89,20.85,24.77l.21.25h-.32a19.12,19.12,0,0,1-12.59-5.21l.27-.2c4,9.32,3.23,19.79,3.21,29.69.15,1.76-.59,3.31-1.16,4.87-.58,2.48.46,4.87.75,7.35-.59,8.25-22.23,18.73-29.33,22.31l-.56.27.18-.61,3.63-12,.13.34-5.25-3a1.64,1.64,0,0,1,0-2.82l.4-.23,1.62-.92,3.23-1.85,0,.53-3.54-1.51-1.77-.76a1.69,1.69,0,0,1-1.13-1.81c.06-.72.79-1.2,1.22-1.68,1-1,3.09-3.11,4.08-4.08v.45l-5.22-4.47-1.3-1.12a1.65,1.65,0,0,1-.5-1.9c.43-1,1.4-3.81,1.8-4.82s1.1-2.05-.06-2.6c-.89-.34-7-2.55-8-2.93-1.56-.37-2.23-1.69-1.23-3l1.82-2.91.91-1.46c.48-.58.64-1.35,0-1.81a11.92,11.92,0,0,0-2.37-.44l-6.8-1c-.59-.09-1.09-.14-1.74-.26a1.69,1.69,0,0,1-1.22-1.6c-.1-.62.52-1,.53-1.61a1,1,0,0,0-.7-1,1.9,1.9,0,0,0-.73,0l-.85.06-5.14.37-2.58.19a1.75,1.75,0,0,1-2.15-1.71,5.08,5.08,0,0,1,.68-1.72l1.51-3a1,1,0,0,0-.34-1.12c-.41-.32-.87-.14-1.39-.09l-10.24,1.37a1.71,1.71,0,0,1-1.71-1.11,2.49,2.49,0,0,1,.27-1.89,1,1,0,0,0-.37-1.1c-.37-.26-.74-.16-1.35,0l-16.61,4.39-1,.27,2.44-3.43c.14-.25.76-1,.85-1.23a1,1,0,0,0-1.26-1.23l-4.4,1.73-19.82,7.8a2.07,2.07,0,0,1-1.81-.11c-4.72-1.6-9.59-2.59-14.37-4.2a5.86,5.86,0,0,1-1.56-.73,5.37,5.37,0,0,0-1.3-.45c-5.13-1.15-10.42-1.39-15.54-2.66-.93-.27-6.74-2-7.59-2.23a.94.94,0,0,0-1.33,1.14l.15.77a1.84,1.84,0,0,1-2.21,2.38l-.79-.06c-2.23-.16-5.62-.43-7.86-.6-.44,0-.88-.16-1.25.1a.89.89,0,0,0-.39.91c.12.39.32,1,.48,1.44s1.06,3.2,1.19,3.59H886.41l-4.69,0a.89.89,0,0,0-.67,1.18c.13.3.41.46.66.69l1.35,1.16a1.84,1.84,0,0,1-.12,3.2,1.74,1.74,0,0,1-.75.19l-.59,0-4.75.28-7.12.42a.9.9,0,0,0-1,1l2.29,9.16.14.58a1.86,1.86,0,0,1-.57,2.11,2.1,2.1,0,0,1-.33.22l-.27.13-.53.27c-1.57.77-3.91,2-5.32,2.66l-1.06.53c-.41.2-.59.28-.72.52a.85.85,0,0,0,.15,1c.08.08.29.23.43.35l1.86,1.48a1.89,1.89,0,0,1,.76,1.34A1.86,1.86,0,0,1,865,284l-7.18,6.28-.08-.8L865,293.6l.5.28-.36.45L861,299.52v-.6l3.12,4.16.47.63c-5.38.26-2.54,12-1.78,15.35-9.39-2.23-18.86-4.65-27.49-9.07-2.39-1.41-5.58-3-5.92-6.18.31-2.72,1.79-5.05,1.33-7.79,0-.07-.09-.2,0-.13l-.13-.24a71,71,0,0,1-.86-15.48,11.13,11.13,0,0,1,1.48-5.1l.72.43a108.49,108.49,0,0,0-4.8,12.62,49.09,49.09,0,0,0-2.45,13.17l-.81,0a81.17,81.17,0,0,1-.17-11.77c.66-11.7,3.56-23.65,10.67-33.18l.63.4c-4.12,6.66-12.74,8-20,7.43a81.3,81.3,0,0,0,12-13.45c1.13-1.54,2.19-3.14,3.23-4.74a29.63,29.63,0,0,1,8.44-7.37l-.19.31a32.11,32.11,0,0,1,5.84-18.65,29.16,29.16,0,0,1,16.23-10.75l-.22.3c.19-6.89,4.39-13.3,11.71-13.8,2.11-1.65,5.55-4.47,7.93-6.72,2.59-2.41,4.55-5.57,7.91-7,6.26-3.1,14.06-4.78,20.66-1.8l-.34.1c4.38-6.3,11.17-12.48,19.34-11.95,4.82.39,9,3.32,12.21,6.74l-.38.12c2-7.91,9-9.12,15.87-6.37a17.89,17.89,0,0,1,5.42-1.14A15.52,15.52,0,0,1,975,175.51l-.15-.06a18.19,18.19,0,0,1,8.46-.12,8.77,8.77,0,0,1,6.22,5.41l-.15-.05a10.38,10.38,0,0,1,8.52.21,14.61,14.61,0,0,1,4.92,4.26L1004,187l-.06,0c11.61.4,23.61,6.56,28,17.74Zm0,0c-4.48-11.14-16.46-17.25-28-17.59h0l0,0-1.21-1.8c-2.92-4.15-8.5-6.6-13.33-4.33-2.07-5.86-9.28-6.57-14.54-5.18a15.53,15.53,0,0,0-8.67-6.77,18.47,18.47,0,0,0-11.08.56,25.28,25.28,0,0,0-4.67-1.22,9.16,9.16,0,0,0-10.63,7.32l-.1.41c-4.15-4.65-10.43-8.24-16.78-6.43-6,1.63-10.81,6.31-14.28,11.31l-.13.2-.22-.1c-6.43-2.89-14.06-1.21-20.16,1.81-3.36,1.47-5.19,4.55-7.77,6.94a101.65,101.65,0,0,1-8.13,6.83c-3.17.42-6.39,1.65-8.31,4.35a15.91,15.91,0,0,0-3,9.16,28.54,28.54,0,0,0-16.1,10.59,31.5,31.5,0,0,0-5.69,18.24v.22l-.19.1a29.16,29.16,0,0,0-8.19,7.19c-.89,1.44-2.15,3.22-3.21,4.73a84.7,84.7,0,0,1-11.37,13l-.21-.64c6.62.47,14.59-1,18.34-7.08l.63.4a52.71,52.71,0,0,0-9,21.22,83.08,83.08,0,0,0-1.26,23.18l-.81,0c.16-6.87,2.33-13.47,4.68-19.85.81-2.13,1.66-4.22,2.61-6.3l.73.44c-1.65,2.79-1.42,6.55-1.42,9.76a93.59,93.59,0,0,0,1,10.17l-.12-.24a2.71,2.71,0,0,1,.38,1.68c0,2.3-1.09,4.72-1.41,6.84.49,3.8,7.36,6.31,10.51,7.75A149.78,149.78,0,0,0,862.25,318l-.55.57c-.81-3.77-3.26-14.25,1.92-15.65l-.29.76-3.12-4.15-.23-.3.24-.3,4.15-5.19.14.73-7.28-4.15-.6-.35.52-.46,7.14-6.25a.84.84,0,0,0-.14-1.32l-1.86-1.49a2.54,2.54,0,0,1-.94-1.08,1.84,1.84,0,0,1,.68-2.16,5.81,5.81,0,0,1,.58-.31l1.06-.53,5.32-2.66.8-.39c.75-.39.42-1.15.26-1.8-.66-2.7-1.69-6.63-2.3-9.3a1.83,1.83,0,0,1,1.21-1.9,28,28,0,0,1,3.09-.25l9.49-.55a3.16,3.16,0,0,0,1-.13.87.87,0,0,0,.3-1.31l-.15-.15-.22-.19-.45-.39-.91-.77c-.15-.14-.29-.24-.46-.41a1.8,1.8,0,0,1,.94-3.08c1.34-.06,3.45,0,4.83,0h9.51l-.43.6c-.33-1.08-1.19-3.46-1.5-4.55a1.8,1.8,0,0,1,1.77-2.12c.5,0,1.86.14,2.39.18l6.29.48,1.18.09a.89.89,0,0,0,1-.74,6.79,6.79,0,0,0-.21-1.39,1.83,1.83,0,0,1,.55-1.85c1-.9,2.24-.11,3.41.16l6,1.77a54.39,54.39,0,0,0,6.16,1.14c3.12.49,6.27.85,9.37,1.54,1.13.19,1.76.82,2.94,1.21,4.69,1.59,9.66,2.62,14.39,4.23a1.35,1.35,0,0,0,1.22.12c5-1.95,14.75-5.8,19.82-7.78l2.94-1.15,1.47-.57a1.72,1.72,0,0,1,2.25,2.25A12.63,12.63,0,0,1,976,248l-1.83,2.57-.41-.59c3-.75,14.69-3.93,17.53-4.56a1.7,1.7,0,0,1,1.69,2.23l-.3.79a1,1,0,0,0,1,1.24c2.73-.33,8.33-1.12,11.09-1.45a1.71,1.71,0,0,1,1.6,2.28c-.62,1.52-1.72,3.08-2.15,4.54a1,1,0,0,0,.68,1,2,2,0,0,0,.71,0l.86-.06,1.72-.12,3.42-.25,1.72-.12.85-.06a2.5,2.5,0,0,1,1,.05,1.69,1.69,0,0,1,.85,2.62,1,1,0,0,0,.52,1.55c.47.09,1.11.16,1.66.25l6.8,1,1.7.25a1.77,1.77,0,0,1,1.59,1.14,2.05,2.05,0,0,1-.44,1.88l-.91,1.46-1.83,2.91a1.27,1.27,0,0,0-.28,1.29c.2.49.69.58,1.18.76l6.46,2.36,1.63.6a1.67,1.67,0,0,1,1,1.72c-.42,1.46-1.84,4.91-2.4,6.52a1,1,0,0,0,.32,1.2l1.3,1.12,5.21,4.47.26.22-.24.23-2.72,2.72-1.36,1.36-.68.68a1.06,1.06,0,0,0-.37.66,1.07,1.07,0,0,0,.77,1.17l1.77.76,3.53,1.51.55.24-.52.29-3.23,1.85-1.62.92-.4.23a1.22,1.22,0,0,0-.27.23,1.07,1.07,0,0,0,.27,1.58l.4.23,4.85,2.77.2.11-.07.22L1037,318.52l-.38-.34c7.09-3.54,28.29-13.85,29-21.8-.33-2.41-1.3-5-.71-7.47.56-1.65,1.32-3,1.16-4.75.07-9.84.83-20.28-3-29.54l-.38-.82.66.62a19.75,19.75,0,0,0,9,4.78,16.88,16.88,0,0,0,3.4.39l-.12.24c0-.12-21-25-20.71-25.09,4.78-4.74-3.82-12.43-7.27-15.52-.83-3.55-3.34-6.62-6-9a68.55,68.55,0,0,0-9.54-5.52Z"/><path class="cls-37" d="M870.46,271.68c-12.2-6.7-27.77-18-31.16-32.2a26.41,26.41,0,0,0,2.09,5.31c6.47,11.78,17.89,19.93,29.07,26.89Z"/><path class="cls-37" d="M873.58,260.26c-14.8-12.19-19.26-33-13.5-50.91-5,18.13-.77,38.12,13.5,50.91Z"/><path class="cls-37" d="M880.85,254c-11.7-15.2-15-36.28-9.41-54.52l1.1-3.65-1,3.68c-5,18.33-1.8,38.95,9.29,54.49Z"/><path class="cls-37" d="M896.44,254c-8.64-17.07-18.93-43.36-13.61-62.42a23.71,23.71,0,0,1,4.26-8.22,23.74,23.74,0,0,0-4,8.29c-4.9,19,5.31,45.05,13.37,62.35Z"/><path class="cls-37" d="M908.9,243.63c-4.61-14.84-13.6-51,0-62.33-12.91,11.29-3.95,47.43,0,62.33Z"/><path class="cls-37" d="M974.35,243.63c9.53-16.37,17-35,16.51-54.18a57.11,57.11,0,0,0-.92-8.15,57.07,57.07,0,0,1,1.17,8.13c.84,19.28-6.65,38.11-16.76,54.2Z"/><path class="cls-37" d="M991,245.71c6.71-15.1,18-42,13.5-58.18,5.18,16.26-6.14,43.31-13.5,58.18Z"/><path class="cls-37" d="M1005.52,248.83c10.47-14,18.41-30.82,18.9-48.54,0-1.31-.17-4.16-.2-5.48,2.19,19.62-6.62,39-18.7,54Z"/><path class="cls-37" d="M1014.87,256.1c10.65-11.45,18.76-25.71,21.83-41.12a26.78,26.78,0,0,0,.57-3.32l.46-3.35c-1.16,18.05-10.12,35.16-22.86,47.79Z"/><path class="cls-37" d="M1027.34,263.37a140.67,140.67,0,0,0,15-19.08c3.24-5.08,6.18-10.51,7.46-16.45a19,19,0,0,0,.42-6c1.62,14.24-13.31,31.94-22.85,41.55Z"/><path class="cls-37" d="M934.88,248.83c-10-23.39-9.83-52,4.15-73.76a74.16,74.16,0,0,0-4.34,8.52c-9.05,20.51-7.88,44.6.19,65.24Z"/><path class="cls-37" d="M954.61,168.83c6.91,13.25,7.89,28.82,6.67,43.48A131.61,131.61,0,0,1,957,234.16c-.35,1.54-1.17,3.8-1.66,5.32-1.55,5.15-3.92,10.64-6,15.58,1.32-3.46,2.68-6.91,4-10.38.59-1.81,2-6.21,2.56-7.94,6.2-21.37,8.58-47.32-1.34-67.91Z"/><path class="cls-40" d="M942.26,251.15s-4.34-21.69-10.12-7.23,0,30.36,0,30.36-11.57-17.35-7.23-39,18.8-10.12,18.8-4.33"/><path class="cls-41" d="M945.83,378c-.9,4.39-2.26,8.59-3.49,12.87a37.17,37.17,0,0,0-.83,8.79c-.1,4.41,2.85,9.53,7.24,5.29l.07.06a5.74,5.74,0,0,1-1.61,1.61c-1.84,1.37-4.14.45-5.28-1.36-2-3-1.4-6.77-.81-10.07.58-2.57,1.22-6.24,1.69-8.79.75-2.8,1.57-6,3-8.4Z"/></g><g id="mouth-2" data-name="mouth"><g id="_mouth" data-name="+mouth"><path class="cls-42" d="M982.24,423.05c.22,1.21.07,2.36-1.15,2.9a8.11,8.11,0,0,1-4.59,2.23c-9.85,2-20.35.17-30.17-1.07a53.37,53.37,0,0,0-15.09-.21c-2.23.42-6.75,1.57-11.23,2.08-1.41.24-2.83.46-4.26.6a8.93,8.93,0,0,1-4-.39c-2-.22-3.73-.89-4.68-2.29a3,3,0,0,0,.18,3.19,10,10,0,0,0,2.48,2.58c1.64.22,3.46.21,4.67,1.8a70.66,70.66,0,0,1,6.26,9.83c8.31,9.77,26,11.5,37.53,7.32,8.5-3.1,12.09-8.21,16.38-15.12a27.14,27.14,0,0,1,2.25-3.08C980.92,426.1,985.34,428.74,982.24,423.05Z"/><path class="cls-43" d="M982,422c.54,1.71.72,3.61-1.44,4.14a21.54,21.54,0,0,1-2.63.44,65.73,65.73,0,0,1-7.72,1,134.46,134.46,0,0,1-16.43.44c-7.78-.08-15.9-2.39-23.59-.88-.7,0-1.41.08-2.12.13a96.79,96.79,0,0,1-12.3,2.27,8.93,8.93,0,0,1-4-.39,6.29,6.29,0,0,1-4.56-2.12c1.2,3.2,3.28,4.09,6.34,4.16,5.3,4.54,7,12.33,13.65,15.44a48.89,48.89,0,0,0,21.5,4.3c6.17-.21,12.72-2.31,17.3-6.11,2.38-2,3.66-4.51,4.9-7.14,2.11-4.46,4.71-6.9,8.91-9.74a.48.48,0,0,0,.09-.11c.61-.22,1.24-.43,1.81-.7a1.3,1.3,0,0,0,.82-.33l0,0h0a.91.91,0,0,0,.48-.64A3.44,3.44,0,0,0,982,422Zm-12.63,15.19c-3.56,7.54-9.55,11.15-18.5,11.92-7.1.62-15.16-1.06-21.71-3.41-7.1-2.55-9-10.32-14.77-14.46.52,0,1.07,0,1.65-.08,7.76-.56,15-3.59,22.94-3.77a.09.09,0,0,0,.09-.11c6.1.55,12.34,2,18.23,2.29,5.23.24,12,.53,18-.51C972.46,431,970.72,434.31,969.35,437.19Z"/><path class="cls-44" d="M969.35,437.19c-3.56,7.54-9.55,11.15-18.5,11.92-7.1.62-15.16-1.06-21.71-3.41-7.1-2.55-9-10.32-14.77-14.46.52,0,1.07,0,1.65-.08,7.76-.56,15-3.59,22.94-3.77a.09.09,0,0,0,.09-.11c6.1.55,12.34,2,18.23,2.29,5.23.24,12,.53,18-.51C972.46,431,970.72,434.31,969.35,437.19Z"/><path class="cls-30" d="M967.43,433.84a36.3,36.3,0,0,0,3.1-4.22,111.86,111.86,0,0,1-13.25-.05c-5.89-.27-12.13-1.74-18.23-2.29a.09.09,0,0,1-.09.11c-6,.14-11.64,1.91-17.4,3,1.55,3.06,3.25,5.41,7.89,6.36a92.42,92.42,0,0,0,13.37,2.16A65.51,65.51,0,0,0,959,437.76,24.47,24.47,0,0,0,967.43,433.84Z"/><path class="cls-45" d="M962.94,433.32a10.41,10.41,0,0,1-3.06,4.17,23,23,0,0,0,7.55-3.65,36.3,36.3,0,0,0,3.1-4.22,111.86,111.86,0,0,1-13.25-.05c-5.89-.27-12.13-1.74-18.23-2.29a.09.09,0,0,1-.09.11c-6,.14-11.64,1.91-17.4,3,.13.28.28.54.42.8,6.14-.49,12.12-1.89,18.36-1.6,7.32.35,14.53,1.47,21.76,2.47A.94.94,0,0,1,962.94,433.32Z"/><path class="cls-46" d="M948.37,443.25a33,33,0,0,0-18,2.84c6.33,2.14,13.85,3.6,20.53,3a27.39,27.39,0,0,0,8.53-2A27.3,27.3,0,0,0,948.37,443.25Z"/></g><path class="cls-42" d="M932.91,457.88c5.77,5.19,16,5.31,22,.74a1.33,1.33,0,0,0,.44-.69C947.71,459.68,940.15,460.44,932.91,457.88Z"/></g><g id="front_mufler" data-name="front mufler"><g id="front_mufler-2" data-name="front mufler"><path class="cls-39" d="M911.28,618.5s1,38-14,79-21,88-26,139-13,66-62,116-71,71-88,96-27,32-27,32l116-1s59-67,73-97,23-24,40-61,36-117,66-164,26-146,26-146Z"/><path class="cls-17" d="M911.28,618.5A239.88,239.88,0,0,1,904.17,676c-1.35,5.21-2.86,10.82-4.59,15.94a378.84,378.84,0,0,0-15.49,55.77c-4.31,21.65-7.14,43.56-9.53,65.51-2.64,21.94-3.08,44.36-9.89,65.61-6.68,21.44-21.34,39.1-36.26,55.37-21.63,23.42-47.24,48.32-69.21,71.41-11.38,12-22.6,24.12-32.35,37.46-3.29,4.43-6.28,9.08-9.55,13.54-6.66,9-13.47,18-22.21,25.09l-.82-2.56,116-1.08-1.11.5q10.73-12.24,21.12-24.81c15.49-18.81,30.89-37.92,44.15-58.38,4.49-6.81,7.84-14.22,11.69-21.4a88,88,0,0,1,9.31-13.66c7.18-8.25,14.47-16,19.65-25.67,8.1-14.1,13.67-29.4,19-44.74,13.43-38.48,25.33-77.81,43.75-114.32,2.1-4,5.58-10.47,8-14.3,4.06-6.58,8.55-14.23,11.31-21.49,8.1-20.13,12-41.7,14.58-63.17a479.26,479.26,0,0,0,3-65.05c3.42.87-104.42,6.8-103.52,7Zm0,0,104-7.48.5,0v.5a472.56,472.56,0,0,1-2.46,65.26c-3.23,26.88-8,54.66-21.53,78.5-3.94,6.51-8.6,14.44-12,21.23C961.55,813,950,852.27,936.58,890.7c-5.36,15.4-11,31-19.17,45.22-5.15,9.66-12.79,17.94-19.87,26.08a84.89,84.89,0,0,0-9,13.27c-3.84,7.2-7.23,14.7-11.73,21.55-19.39,29.67-42.34,56.82-65.4,83.67l-.43.5h-.67l-116,.92-4.31,0a77.06,77.06,0,0,0,14.92-14.06c10.84-12.53,19.16-27.05,30-39.56,20.71-24.25,46.4-48.95,68.75-71.94,22.42-23.58,48.55-46.53,59-78.23,6.84-21,7.4-43.38,10.13-65.17,2.49-22,5.47-43.91,10-65.56a380.76,380.76,0,0,1,16-55.75c1.77-5.08,3.33-10.65,4.72-15.85a239.61,239.61,0,0,0,7.63-57.32Z"/><g id="wrinkle"><path class="cls-33" d="M914.28,710.5c13.85-20.79,23-44.19,30.77-67.8,1.16-3.37,2.18-6.79,3.23-10.2-5.42,27-16.33,56.59-34,78Z"/><path class="cls-33" d="M989.28,632.5c.54,27-3.86,54.65-15.35,79.25a105.16,105.16,0,0,1-14.65,22.94c-18,20.19-34.8,41.35-51,63-5.43,7.19-10.73,14.48-16,21.8,9.83-15.13,20.35-29.8,31.21-44.21s22.39-28.36,34.27-41.9A102.89,102.89,0,0,0,972.29,711c11.53-24.4,16.37-51.59,17-78.46Z"/><path class="cls-33" d="M944.28,795.5a359.59,359.59,0,0,1-48.93,71.77c-19.12,21.91-42,40-63,59.93a156.4,156.4,0,0,0-16.47,18.5,144,144,0,0,1,15.77-19.19c17.48-17.64,36.87-33.31,53.8-51.48,23-23.75,42.18-51,58.81-79.53Z"/><path class="cls-33" d="M770.67,1079.84c23.27-11.75,43.75-28.38,62.84-46a504.37,504.37,0,0,0,40.35-42.47c4.2-5,8.27-10.07,12.49-15.06-3.87,5.25-7.76,10.5-11.74,15.68-20.34,25.5-43.51,49.16-70.05,68.22-10.7,7.49-21.79,14.64-33.89,19.61Z"/></g><path class="cls-47" d="M909.28,626.5l18,29s-1,39-13,56c0,0,30-27,34-48l36-1s-10,63-39,87-52,68-52,68,19-19,28-19a263.85,263.85,0,0,0-32,43s-28,44-30,60c0,0,53-77,72-91s60-125,60-125,1,46-18,80-37,119-56,149-43,67-78,92-79,72-79,72h48s54-57,72-91,43-72,55-100,36-106,42-111,29-63,35-132S909.28,626.5,909.28,626.5Z"/><path class="cls-47" d="M920.78,841s-14,28-44,50,0-2,0-2Z"/></g><g id="main_mufler" data-name="main  mufler"><path class="cls-39" d="M869.28,441.5s-74-20-47,39c0,0-8,6-2,19,0,0-8,5-8,12v17s-13,14-12,20,8,17,7,23-11,7,8,22,40,11,71,27,48,36,104,26,35-26,71-26,53-57,53-57-13-13-19-13c0,0,21-29,8-38s-12-19-19-28-10-1-9-20c.49-9.14.92-8.8-6-18-7.46-9.93-53.49-9.87-52-1,2.19,13,13,20,7,28,0,0-9,14-40,14s-41,7-60,0-30-13-48-14c0,0-5-17-28-19L872,446.27"/><path class="cls-17" d="M869.28,441.5c-17.49-4.12-53.5-8.67-52.51,18.09.41,7.34,3.06,14.38,6.14,21.05a12.16,12.16,0,0,0-4.26,9,21.22,21.22,0,0,0,2.43,10.12c-3.3,2.19-6.42,5.22-7.66,9a10.51,10.51,0,0,0-.41,3.74l.06,16v.3l-.21.24c-3.7,4.32-13.07,14.73-11.53,20.21,1.83,6.87,6.23,13.06,7,20.39a8,8,0,0,1-.57,3.65c-.86,2.05-2.54,3.57-2.94,5.61-.69,5.34,10.11,13,14.1,15.94,14.77,9.91,33.09,10.75,49.53,16.73,16.9,5.41,31.75,15.6,47.12,24a94.51,94.51,0,0,0,50,12.17c17.29-.69,35-3.66,51.17-9.72a54.6,54.6,0,0,0,16.41-10,50.78,50.78,0,0,1,5.36-4.16,30.13,30.13,0,0,1,13-4.29c4.34-.62,8.86-.37,13.2-.73,25.44-3.18,40.83-33.89,48.22-55.75l.36,1.43A77.79,77.79,0,0,0,1100,553.71a11.51,11.51,0,0,0-4.71-1.8l-2.68,0a104.15,104.15,0,0,0,8.13-13c2.79-5.54,5.43-11.47,5.41-17.69a8.88,8.88,0,0,0-3.44-7.36l-1.32-1a34.87,34.87,0,0,1-6.1-5.73c-5.77-6.65-7.09-15.89-12.6-22.45a21,21,0,0,0-6-4.78c-1.69-1-2.46-3.39-2.64-5.08-.48-4.47-.08-8.75.13-13.14a16,16,0,0,0-.39-5.92c-.84-2.59-3.37-5.42-5-7.78-3.68-5.2-13.7-6.37-19.75-7.21-8.34-.83-17.11-1-25.26,1-1.7.46-3.94,1.19-5,2.5a1.34,1.34,0,0,0-.31,1c0,.1.17,1,.2,1.12,1.06,5.22,3.72,9.68,6.23,14.51,1.48,2.91,3,6.62,1.93,10-1.49,4.37-5.35,7.25-9.18,9.73-8.44,5.13-18.42,7.09-28.14,7.6-6.49.23-12.84.06-19.29.58-9.63.53-19.2,2.45-28.9,2.5a50.54,50.54,0,0,1-19-3.94c-12-4.51-23.72-10.15-36.42-12.42a91.52,91.52,0,0,0-9.78-1.15,27.25,27.25,0,0,0-11-13.72,37.3,37.3,0,0,0-17.42-5.54l.65-.22L872,446.27l-23.64,8.37,0-.29c8.93.66,17.94,4.24,23.76,11.26a25.39,25.39,0,0,1,4.56,7.79l-.32-.25c13,.46,25.39,4.9,37.34,9.65,6,2.2,11.91,4.88,18.16,6.16,12.66,2.52,25.5-1.12,38.23-1.79,12.7-1,25.85.32,38-4.19,5.79-2.09,11.65-5.13,15.44-10.09,2.73-3.38,1.36-7.49-.54-11-2.6-4.89-5.7-10.14-6.68-15.85-1.36-7.37,15.18-8,20-8.24,8.76-.2,17.55.36,26,3,3.16,1.05,6.66,2.63,8.63,5.57l1.94,2.61c2,2.7,4.11,5.89,4.06,9.42.06,5.32-.79,10.76-.18,16a6.2,6.2,0,0,0,.76,2.49c1,1.36,3.6,2.2,4.91,3.56,7.73,6.55,8.78,17.51,15.07,24.87a32.14,32.14,0,0,0,5.65,5.28,14.18,14.18,0,0,1,3.87,3.58c4.89,7.9-.07,18.49-3.66,25.9a98.86,98.86,0,0,1-6.79,11.23l-1.15-2.24c4.38.34,7.73,3.17,11.11,5.58a103.29,103.29,0,0,1,8.91,7.81l.62.61a128.73,128.73,0,0,1-5,13.33c-8.76,19.6-22.64,42.45-46,45.36-4.3.37-8.88.08-13.15.69a27.51,27.51,0,0,0-16.89,7.75,57.61,57.61,0,0,1-17.22,10.47c-23.21,8.43-54.55,13.08-78.69,7.11-17.44-4.09-32.33-14.48-47.63-23.09a142.79,142.79,0,0,0-23.79-10.84c-18.45-6.68-40-7.66-55.22-21.39-3.74-3.36-10.2-8.28-9.53-13.9.6-3.39,4-5.29,3.55-8.84-.72-7-5-13.16-6.79-20.08-1.83-6.37,8.07-17,12.07-21.7l-.21.54.06-16a12.4,12.4,0,0,1,.53-4.16c1.34-4,4.44-7.07,7.86-9.38l-.24.79c-2.18-4.7-3.22-10.48-.94-15.38a11.88,11.88,0,0,1,3.21-4.29l-.16.62c-3-6.66-5.49-13.69-5.82-21.09-.69-27.33,35.44-22.57,53.28-18.12Z"/></g><path id="side_shadow" data-name="side shadow" class="cls-33" d="M895.28,499.5s-13,2-31-6c0,0,2,5,40,34a160.88,160.88,0,0,1-22-14c-12-9-28-30-40-27,0,0,9,25,36,49,0,0-27-20-40-43-6.49-11.49-11-7-13.61-2.89s-3.36,13.37,8.61,24c.64.57,1.27,1.14,1.87,1.73,3.15,3.09,14,13.59,19.13,16.14a80.1,80.1,0,0,1-33-26s-8,5-3,11,21,30,29,32a113,113,0,0,1-26-19s-4-9-8-2-9,14,0,20,27,29,38,35,26,8,26,8-24,3-43-14-22-23-22-18-5,6,7,14,31,19,33,26l-44.92-27.75s-2.09-11.52-5.58-17.39-3-10.94,2.24-14.4,8.26-12.3,8.26-12.3-1.55-15.48.73-18.82,7-9,7-9-5.23-7.74,1.53-20l-3.6-6.43A14.12,14.12,0,0,1,816.56,462h0s-3.78,15,34.22,19c4.67.49,10.07,4,12,5.18,3,1.82,9.79,11.94,32.47,13.32"/><g id="fmuflerwrinkle"><path class="cls-33" d="M898.48,524.29c-.47,4.2,7.2,4.36,10.07,4.42,4.12,0,8.26,0,12.37.14,8.25.24,16.48.48,24.72.55,16.37.05,33,.3,49.12-2.6a81,81,0,0,0,33.64-13.91,103.39,103.39,0,0,1,10.68-6.37c3.72-1.92,7.46-3.49,10.81-5.82,10.11-7.05,17.95-16.94,23.89-27.7-5.43,11.12-13.09,21.41-23.17,28.74a95.48,95.48,0,0,1-10.81,6.13c-3.6,2-7,4.16-10.45,6.46a82.88,82.88,0,0,1-34.22,14.43c-16.39,2.77-33,2.57-49.53,2.18-8.24-.27-16.48-.68-24.71-1.11-4.12-.25-8.22-.47-12.35-.6-3.12-.16-10.65-.66-10.06-4.94Z"/><path class="cls-33" d="M859.44,519c3.82,4,7.75,7.93,11.86,11.62,3.11,2.57,6.16,5.68,10.14,6.73,4,.88,8.18,1.31,12.26,2.13a86.17,86.17,0,0,1,23.73,7.94c3.64,1.93,7.12,4.14,11,5.41,17.66,5.21,35.29-4.25,53-4.54,10.15-.8,32.32-.85,39.52-7.69,5.26-6.46,11.73-11.82,17.55-17.72,7.78-7.76,15.5-15.87,20.89-25.49,2.69-4.82,4.22-10.25,6.91-15.08a55.29,55.29,0,0,1,4.35-7.1c1.45-2.31,4-4.11,4.41-6.92-.31,2.82-2.8,4.75-4.16,7.09a56.69,56.69,0,0,0-4.13,7.17c-2.56,4.92-3.94,10.39-6.52,15.3-5.29,9.85-12.94,18.14-20.66,26.11-5.71,6-12.14,11.38-17.34,17.85-7.51,7.46-30.13,7.59-40.71,8.48-23.52.68-42.54,13.79-64.89-1.51a85.11,85.11,0,0,0-23.24-8.2c-4.4-1-8.93-1.42-13.28-2.7-3.57-1.52-6.42-4.33-9.25-6.87-4-3.81-7.85-7.85-11.51-12Z"/><path class="cls-33" d="M996.28,498.5c4.08-3.06,8.31-5.91,12.59-8.71a124.17,124.17,0,0,1,13.34-7.61,24.63,24.63,0,0,1,7.49-2.52,46.51,46.51,0,0,0,14.59-3.25c3.32-1.35,7-2.82,9.35-5.47a2.54,2.54,0,0,0,.65-1.37c.22-3.16,1.25-6.24,1.73-9.26.84-4.7,1.32-10.07-1.48-14.15-2.73-3.72-8.37-5.92-12.86-4.58-4.89,1.74-6.67,7.43-7.36,12.15.32-8.66,5.38-16.23,14.89-12.94a12.92,12.92,0,0,1,6.59,4.46c3.29,4.43,2.9,10.29,2.09,15.39-.46,3.1-1.44,6-1.64,9a4.49,4.49,0,0,1-1.06,2.49c-2.71,3.1-6.56,4.59-10.21,6.07a45.87,45.87,0,0,1-15.15,3.16,25.6,25.6,0,0,0-7,2.19,146.31,146.31,0,0,0-13.48,7c-4.43,2.51-8.76,5.19-13.09,7.88Z"/><path class="cls-33" d="M1026.92,471.7A46.23,46.23,0,0,0,1041,459.24a46.65,46.65,0,0,1,14.91-12.35,105.45,105.45,0,0,0-13.33,13.57,30.53,30.53,0,0,1-15.66,11.24Z"/><path class="cls-33" d="M847.28,548.5a56.76,56.76,0,0,1,16.29,6.88c2.51,1.52,4.58,3.72,7.26,5a36.83,36.83,0,0,0,8.37,2.46c11.59,2.1,23.47,3.23,34.84,6.58,4,1.18,8.7,2.72,12.72,3.55,12.71,2.62,26.55,2.25,38.47-3.19,2.72-1.25,5-3.42,8-4.08a29.65,29.65,0,0,1,9.12-.53c6,.45,11.75,1.41,17.58,1.42a53,53,0,0,0,15-2.43c11.71-3.63,22.86-10.49,29.8-20.77,1.56-2.48,2.94-5.13,4.53-7.59a57.24,57.24,0,0,1,11.82-13.35c4.3-3.89,10.06-6.49,13.13-11.5,1.46-2.55,2.82-5.17,4.16-7.8,2.66-5.26,5.25-10.57,7.8-15.89-2.36,5.41-4.78,10.8-7.33,16.13-1.66,3.3-3.08,6.79-5.2,9.84-3.34,4-8,6.64-11.83,10.08a56.91,56.91,0,0,0-10.19,11.39c-2.06,3.06-3.69,6.37-5.6,9.53A47.07,47.07,0,0,1,1033.5,557c-9.8,6.83-21.56,11.2-33.56,11.45-6,0-11.9-.93-17.71-1.34-4.24-.26-8.64-.32-12.21,2.07a38.94,38.94,0,0,1-12.49,5.24,68.13,68.13,0,0,1-26.72,1c-5.73-.83-11.7-2.77-17.2-4.57-11.28-3.52-23-4.78-34.61-7.09a38.33,38.33,0,0,1-8.5-2.74c-2.69-1.32-4.71-3.58-7.22-5.19a59.34,59.34,0,0,0-16-7.32Z"/><path class="cls-33" d="M1086.28,511.5c.89,6-1.75,12-5.9,16.25-6.3,6.44-15.34,8.76-23.17,12.67-8,3.5-15.51,7.87-21.79,14.09,7.19-9.54,18.32-14.82,29-19.48,5.28-2.33,10.71-4.38,14.91-8.39a20.75,20.75,0,0,0,7-15.14Z"/><path class="cls-33" d="M941.28,591.5c17.71,1.63,36.31,1.32,52.94-5.51,3.31-1.37,6.44-3.51,9.88-4.56,14.28-4.69,28.8,1.78,43,3.05,4.38.31,8.79-.24,12.17-3.07l2.14-1.64a204.68,204.68,0,0,0,20.55-17.4,72.89,72.89,0,0,0,13.29-16.87c-3.06,6.56-7.67,12.27-12.59,17.56a202.41,202.41,0,0,1-20.22,18l-2.13,1.67c-3.63,3.14-8.82,3.86-13.32,3.54-14.12-1-28.3-7.5-42.37-3.14-3.38,1-6.49,3.12-9.76,4.42-16.94,6.66-35.84,6.55-53.61,3.92Z"/><path class="cls-33" d="M908.28,591.5c7.93-2.18,16.43-.1,23.82,3,4.43,2,8.52,4.74,12.94,6.63,17.72,7.51,38,8.16,56.6,3.82a99.16,99.16,0,0,0,18.1-6.49,77,77,0,0,1,13.74-5.13c7.88-1.71,15.61-4.23,22.43-8.69a57.38,57.38,0,0,1-17.45,8.5c-3.13.9-6.24,1.59-9.26,2.77s-5.89,2.54-8.81,3.94a91.91,91.91,0,0,1-71.46,4.6c-6.17-2.21-11.54-6-17.3-8.93-7.21-3.32-15.38-5.74-23.35-4.07Z"/><path class="cls-33" d="M911.28,611.5c7.48-3.2,19.2.22,26.79,2.42,17.35,5.19,35.64,6.67,53.66,7.69a117.94,117.94,0,0,0,14.32-.05c4.06-.78,7.67-3,11.34-4.93l12-6.54c5.14-2.59,10.2-5.73,16-6.59,1.07-.21,2.26.35,3.3.13a19.52,19.52,0,0,0,5.84-2.72,88.51,88.51,0,0,0,10.7-8.2,136,136,0,0,0,18.43-19.86c5.43-7.21,10.3-15.06,12.68-23.85-2,8.93-6.69,17-11.89,24.43-7.28,10.05-23.52,28.39-35.44,31.94-1.2.32-2.25-.24-3.47-.08-5.44.89-10.33,4-15.26,6.48-6.58,3.4-15.94,9.61-23,11.54-5.2.7-10.37.27-15.56.11-18.17-1.06-36.49-3-53.89-8.57-6.4-2.2-13-4.09-19.82-4.33a15.23,15.23,0,0,0-6.66,1Z"/></g><path id="main_mufler-2" data-name="main  mufler" class="cls-47" d="M945,490.51c9.87-.54,20.88-3,39.28-3,31,0,40-14,40-14,6.34-8.48-7-16.53-6.5-28.5.5-10.73,44.42-9.51,52,2,5.64,8.56,5.93,9.4,5.5,17.5-1,19,2,11,9,20s6,19,19,28-8,38-8,38c6,0,19,13,19,13s-17,57-53,57-15,16-71,26-73-10-104-26-52-12-71-27c0,0,42.5,12.5,58.5,11.5s41-2,56,7,72,14,77,11-47-10-66-23c0,0,76,11,85-18,0,0-8-6-22,0s-21,12-63,11h0s63-11,59-24,1,0,1,0-10-6-36,2a73.52,73.52,0,0,1-48-2s37-1,51-18c0,0-9,2-11-8s14-13,14-13-23,4-36-1c0,0,79-5,81-26"/><path class="cls-33" d="M1074.28,468.5s-4.74,12.44-18.37,28.22c0,0,6.51-5.93,6.94-5.57,0,0-3.57,11.35-9.57,16.35,0,0,11-7,13-10,0,0,4,4-10,24s-12,25-12,25,7-18,17-24,13.4-11.88,13.4-11.88,10.6-20.12,10.6-22.12-10-6-9-10S1074.28,468.5,1074.28,468.5Z"/><path class="cls-33" d="M1085.28,495.5s-1,15-4,21c0,0,8-12,6-18s-2-3-2-3"/><path class="cls-33" d="M1099,551.56s-2.7,6.94-20.7,20.94c0,0,11-19,7-26a25.26,25.26,0,0,0,20-23s1,12.8-13.5,27.9C1091.78,551.4,1096.67,550.63,1099,551.56Z"/></g><path class="cls-40" d="M1014.1,338.54c-4.51-1.2-9.42-1.09-14-.66A72,72,0,0,0,984.82,341a74.22,74.22,0,0,0-14.73,6.45c-3,1.73-6.4,4.55-10,4.47s-4.34-2.54-4.88-5.55a9.45,9.45,0,0,0-.77-2.66c-1-2-1.92-.08-2.34,1.23-1,3,0,5.84,1,8.72a.38.38,0,0,1-.37.48c-.57,0-3.25-.33-4.2,0l.11.1a.31.31,0,0,1,.1.36,7.63,7.63,0,0,0,1.44,2.06c1.93,1.84,4.25,1.71,6.72,2.07,1.08.16,2.71.35,3.21,1.48.61,1.38.38,3,.76,4.43a19.22,19.22,0,0,0,3.84,7.72c6,6.77,16.38,9.94,25.24,9.45,16.79-.94,31.77-13.65,32.76-30.91a.38.38,0,0,1,.48-.36c2.37.32,4.21,1.9,5.81,3.6C1028.92,346.14,1021.31,340.45,1014.1,338.54Z"/><path class="cls-48" d="M998.67,343.16a63.8,63.8,0,0,0-17.78,4.48c-5.6,2.41-10.74,5.82-16.51,7.81-.46.15-.93.28-1.42.4a1,1,0,0,1-.32.58,4.3,4.3,0,0,1-.49.3,30.52,30.52,0,0,0,2.87,5.44,22.63,22.63,0,0,1,7.07-4.48A46.72,46.72,0,0,1,993,353.9c3.7.22,13.09,1.24,17,4.47,1.46-4.33,1.57-8.88,2.51-13.47a1.26,1.26,0,0,1,.6-.68A41.75,41.75,0,0,0,998.67,343.16Z"/><path class="cls-49" d="M974.23,353.46c6.45-2.4,12.95-4.68,19.76-5.79a78.19,78.19,0,0,1,20-.72,33.81,33.81,0,0,1,8.14,1.42,13.8,13.8,0,0,0-5.19-5.39c-7.6-4.43-17.17-3.44-25.3-1.14-8.6,2.44-16.16,7-23.9,11.28a51,51,0,0,1-9.83,4.55C963.45,358.08,969.08,355.36,974.23,353.46Z"/><path class="cls-40" d="M883.18,400.1c1.55-24.75,8.81-48.46,13.64-72.65A235.23,235.23,0,0,0,901,293.06c.44-8.66.8-17.4,2.35-25.94.09,6.39.29,12.77.5,19.15.79,24.4,1.45,49.11-4.82,72.93-5.21,19.83-13.42,39.06-15.72,59.53A130.17,130.17,0,0,1,883.18,400.1Z"/><path class="cls-40" d="M871.81,338.54c4.51-1.2,9.42-1.09,14-.66A72,72,0,0,1,901.09,341a74,74,0,0,1,14.73,6.45c3,1.73,6.4,4.55,10,4.47s4.34-2.54,4.88-5.55a10.16,10.16,0,0,1,.77-2.66c1-2,1.92-.08,2.34,1.23,1,3,0,5.84-.94,8.72a.38.38,0,0,0,.36.48c.57,0,3.25-.33,4.21,0l-.12.1a.33.33,0,0,0-.1.36,7.63,7.63,0,0,1-1.44,2.06c-1.93,1.84-4.25,1.71-6.72,2.07-1.08.16-2.7.35-3.2,1.48-.61,1.38-.39,3-.77,4.43a19.09,19.09,0,0,1-3.84,7.72c-6,6.77-16.38,9.94-25.24,9.45-16.79-.94-31.77-13.65-32.75-30.91a.39.39,0,0,0-.49-.36c-2.37.32-4.21,1.9-5.81,3.6C857,346.14,864.6,340.45,871.81,338.54Z"/><path class="cls-48" d="M887.24,343.16A63.87,63.87,0,0,1,905,347.64c5.59,2.41,10.73,5.82,16.5,7.81.46.15.94.28,1.42.4a1,1,0,0,0,.32.58,4.41,4.41,0,0,0,.5.3,31.21,31.21,0,0,1-2.88,5.44,22.63,22.63,0,0,0-7.07-4.48,46.69,46.69,0,0,0-20.9-3.79c-3.7.22-13.09,1.24-17,4.47-1.46-4.33-1.56-8.88-2.51-13.47a1.23,1.23,0,0,0-.6-.68A41.75,41.75,0,0,1,887.24,343.16Z"/><path class="cls-49" d="M911.68,353.46c-6.45-2.4-12.95-4.68-19.76-5.79a78.17,78.17,0,0,0-20-.72,33.81,33.81,0,0,0-8.14,1.42A13.76,13.76,0,0,1,869,343c7.59-4.43,17.16-3.44,25.3-1.14,8.59,2.44,16.15,7,23.89,11.28a51.28,51.28,0,0,0,9.83,4.55C922.46,358.08,916.83,355.36,911.68,353.46Z"/><g id="eyes"><g id="left_eye" data-name="left eye"><path class="cls-50" d="M1018.23,344.86c-1.77-1.25-3.65-1.27-5.62-1.56-8-2.12-16.25-1.42-24.49.67a65.7,65.7,0,0,0-13.25,5.23c-4.15,2.09-14.09,9.15-18.68,4.69-.12-.14-.24-.26-.36-.41s-.3-.4-.45-.6a3.13,3.13,0,0,1-.2-.3.16.16,0,0,0-.09-.09,9.34,9.34,0,0,1-2-6.53c.06-.54-.63-.06-.69.25-.73,3.72,1.77,10,5.59,11.34a12.05,12.05,0,0,1-2.68,0,8.77,8.77,0,0,1-4-1.86c-.26-.19-.7.37-.47.58a8.76,8.76,0,0,0,9.09,2.05,1.1,1.1,0,0,0,.44-.55l.33-.06c1.39,7.58,4.7,12.69,11.56,16.34A28.32,28.32,0,0,0,995,376c.25-.08.62-.83.18-.74a33.53,33.53,0,0,1-20.67-2.36,21.7,21.7,0,0,1-5.8-3.59,23.17,23.17,0,0,0,3.8,2.1,34.91,34.91,0,0,0,20.93,1.92c6.07-1.43,11.34-4.41,15-9.49,3.88-5.32,4.47-12.58,4.91-18.92a.44.44,0,0,0,0-.21c1.38.32,2.75.69,4.14,1.08a15.07,15.07,0,0,1,3.87,3.85c.3.46.85-.31.85-.63C1022.15,347.31,1019.5,345.75,1018.23,344.86Z"/><path class="cls-30" d="M1012.32,345.32c-1.22,5.94-1,11.8-4.2,17.2-3.69,6.27-11.15,8.86-18,9.55a37.07,37.07,0,0,1-16.61-2.46c-5.94-2.28-9.25-6.87-11.58-12.45.17-.09.33-.19.5-.3a1.08,1.08,0,0,0,.32-.59c.48-.12,1-.25,1.42-.4,5.76-2,10.91-5.4,16.5-7.81a64.29,64.29,0,0,1,17.79-4.47,41.75,41.75,0,0,1,14.46,1.05A1.22,1.22,0,0,0,1012.32,345.32Z"/><g id="_left_pupil" data-name="+left pupil"><path class="cls-51" d="M998.56,357.78a11,11,0,1,1-10.95-10.95A10.95,10.95,0,0,1,998.56,357.78Z"/><path class="cls-40" d="M997.63,357.78a10,10,0,1,1-10-10A10,10,0,0,1,997.63,357.78Z"/><path class="cls-52" d="M992.07,357.78a4.46,4.46,0,1,1-4.46-4.46A4.47,4.47,0,0,1,992.07,357.78Z"/><path class="cls-30" d="M985.42,358.34a2.27,2.27,0,1,1-2.27-2.26A2.27,2.27,0,0,1,985.42,358.34Z"/></g><path class="cls-48" d="M998.46,343.59a64.29,64.29,0,0,0-17.79,4.47c-5.59,2.41-10.74,5.82-16.5,7.81-.46.15-.94.28-1.42.4a1.08,1.08,0,0,1-.32.59c-.17.11-.33.21-.5.3a31.12,31.12,0,0,0,2.88,5.43,22.63,22.63,0,0,1,7.07-4.48,46.83,46.83,0,0,1,20.9-3.79c3.7.22,13.09,1.25,17,4.47,1.46-4.32,1.56-8.87,2.51-13.47a1.22,1.22,0,0,1,.6-.68A41.75,41.75,0,0,0,998.46,343.59Z"/><path class="cls-49" d="M974,353.88c6.45-2.4,12.94-4.68,19.76-5.78a77.74,77.74,0,0,1,20-.73,33.84,33.84,0,0,1,8.14,1.43,13.72,13.72,0,0,0-5.2-5.4c-7.59-4.43-17.16-3.44-25.3-1.13-8.59,2.43-16.15,7-23.89,11.28a51.87,51.87,0,0,1-9.83,4.54C963.24,358.5,968.87,355.79,974,353.88Z"/></g><g id="right_eye" data-name="right eye"><path class="cls-50" d="M863.3,349c0,.32.54,1.09.85.63a15,15,0,0,1,3.86-3.85c1.4-.39,2.77-.76,4.14-1.08a.66.66,0,0,0,0,.21c.44,6.34,1,13.6,4.9,18.92,3.71,5.08,9,8.06,15.05,9.49A34.91,34.91,0,0,0,913,371.44a23.17,23.17,0,0,0,3.8-2.1,21.86,21.86,0,0,1-5.8,3.59,33.55,33.55,0,0,1-20.68,2.36c-.43-.09-.06.66.19.74a28.33,28.33,0,0,0,22.76-2c6.86-3.65,10.16-8.76,11.56-16.34l.32.06a1.11,1.11,0,0,0,.45.55,8.76,8.76,0,0,0,9.09-2.05c.23-.21-.22-.77-.47-.58a8.76,8.76,0,0,1-4,1.86,12,12,0,0,1-2.68,0c3.83-1.37,6.33-7.62,5.59-11.34-.06-.31-.74-.79-.69-.25a9.29,9.29,0,0,1-2,6.53.2.2,0,0,0-.1.09c-.06.11-.13.2-.19.3l-.45.6c-.12.15-.24.27-.36.41-4.59,4.46-14.53-2.6-18.68-4.69A65.56,65.56,0,0,0,897.36,344c-8.24-2.09-16.48-2.79-24.48-.67-2,.29-3.85.31-5.63,1.56C866,345.75,863.33,347.31,863.3,349Z"/><path class="cls-30" d="M872.57,344.64A41.75,41.75,0,0,1,887,343.59a64.29,64.29,0,0,1,17.79,4.47c5.59,2.41,10.73,5.82,16.5,7.81.46.15.94.28,1.42.4a1.08,1.08,0,0,0,.31.59l.5.3c-2.32,5.58-5.63,10.17-11.57,12.45a37.12,37.12,0,0,1-16.61,2.46c-6.85-.69-14.31-3.28-18-9.55-3.18-5.4-3-11.26-4.2-17.2A1.3,1.3,0,0,0,872.57,344.64Z"/><g id="_right_pupil" data-name="+right pupil"><path class="cls-52" d="M886.93,357.78a11,11,0,1,0,11-10.95A10.95,10.95,0,0,0,886.93,357.78Z"/><path class="cls-40" d="M887.85,357.78a10,10,0,1,0,10-10A10,10,0,0,0,887.85,357.78Z"/><path class="cls-52" d="M893.41,357.78a4.46,4.46,0,1,0,4.47-4.46A4.47,4.47,0,0,0,893.41,357.78Z"/><path class="cls-30" d="M900.07,358.34a2.27,2.27,0,1,0,2.26-2.26A2.26,2.26,0,0,0,900.07,358.34Z"/></g><path class="cls-48" d="M887,343.59a64.29,64.29,0,0,1,17.79,4.47c5.59,2.41,10.73,5.82,16.5,7.81.46.15.94.28,1.42.4a1.08,1.08,0,0,0,.31.59l.5.3a30.42,30.42,0,0,1-2.87,5.43,22.75,22.75,0,0,0-7.07-4.48,46.85,46.85,0,0,0-20.9-3.79c-3.7.22-13.09,1.25-17,4.47-1.46-4.32-1.57-8.87-2.51-13.47a1.3,1.3,0,0,0-.6-.68A41.75,41.75,0,0,1,887,343.59Z"/><path class="cls-49" d="M911.47,353.88c-6.45-2.4-13-4.68-19.76-5.78a77.74,77.74,0,0,0-20-.73,34,34,0,0,0-8.15,1.43,13.86,13.86,0,0,1,5.2-5.4c7.59-4.43,17.17-3.44,25.3-1.13,8.6,2.43,16.16,7,23.9,11.28a51.59,51.59,0,0,0,9.83,4.54C922.25,358.5,916.61,355.79,911.47,353.88Z"/></g></g></g></g></svg>