<?xml version="1.0" standalone="no"?>
<!DOCTYPE svg PUBLIC "-//W3C//DTD SVG 20010904//EN"
 "http://www.w3.org/TR/2001/REC-SVG-20010904/DTD/svg10.dtd">
<svg version="1.0" xmlns="http://www.w3.org/2000/svg"
 width="109.000000pt" height="109.000000pt" viewBox="0 0 109.000000 109.000000"
 preserveAspectRatio="xMidYMid meet">
<metadata>
Created by potrace 1.14, written by Peter Selinger 2001-2017
</metadata>
<g transform="translate(0.000000,109.000000) scale(0.100000,-0.100000)"
fill="#000000" stroke="none">
<path d="M418 1075 c-156 -38 -301 -155 -365 -295 -40 -88 -48 -127 -47 -235
1 -94 5 -120 27 -179 68 -173 225 -310 398 -344 74 -15 222 -6 289 17 172 59
303 199 351 375 6 22 13 78 15 123 9 235 -139 447 -366 523 -81 28 -221 34
-302 15z"/>
</g>
</svg>
