<svg xmlns="http://www.w3.org/2000/svg" width="109" height="108" viewBox="0 0 109 108">
  <g id="Group_4" data-name="Group 4" transform="translate(-140 -37)">
    <ellipse id="Ellipse_3" data-name="Ellipse 3" cx="54.5" cy="54" rx="54.5" ry="54" transform="translate(140 37)" fill="#fff"/>
    <g id="Group_3" data-name="Group 3" transform="translate(150.861 47.891)">
      <path id="Path_1" data-name="Path 1" d="M50.661,78.153h0A29.773,29.773,0,0,1,8.575,36.067l.991-.991a9.5,9.5,0,0,0,7.915,4.29V50.1a15.911,15.911,0,0,0-2.131,2.837,14.16,14.16,0,0,0-1,2.036h0a8.255,8.255,0,0,0-.434,1.263,2.433,2.433,0,0,1-.136.543,4.276,4.276,0,0,0-.163.787,2,2,0,0,0-.068.394c0,.244-.068.475-.081.679s0,.692,0,1.032c0,10.481,13.4,19.007,29.868,19.007a46.5,46.5,0,0,0,7.331-.529Zm36.058-48.4A29.718,29.718,0,0,1,78,50.811l-5.43,5.43a7.385,7.385,0,0,0-.394-1.168h0a12.789,12.789,0,0,0-.611-1.358,15.545,15.545,0,0,0-2.5-3.611V39.366a9.5,9.5,0,0,0,0-19.007,9.2,9.2,0,0,0-3.476.665A25.8,25.8,0,0,0,35.13,9.5l.733-.733A29.773,29.773,0,0,1,86.719,29.754Z" transform="translate(-0.471 -0.013)" fill="#c707ff" opacity="0.5"/>
      <path id="Path_2" data-name="Path 2" d="M20.635,16.656a1.168,1.168,0,0,0-.394-.38,7.712,7.712,0,0,0-1.263-.611A9.2,9.2,0,0,0,15.5,15,9.5,9.5,0,0,0,6,24.5a9.4,9.4,0,0,0,1.561,5.213,9.5,9.5,0,0,0,7.942,4.29,8.907,8.907,0,0,0,1.6-.149A1.358,1.358,0,0,0,18.219,32.5V28.576a23.08,23.08,0,0,1,2.539-10.508A1.358,1.358,0,0,0,20.635,16.656Zm-3.951,4.209a12.22,12.22,0,0,0-.339,1.208c-.1.326-.163.652-.231.977a1.358,1.358,0,0,0,0,.326c-.081.367-.149.747-.217,1.113v.1c-.068.421-.122.855-.163,1.358s-.1.9-.109,1.358,0,.91,0,1.358v2.715a6.788,6.788,0,1,1,0-13.576,6.449,6.449,0,0,1,2.226.38.679.679,0,0,0-.068.176,13.469,13.469,0,0,0-.543,1.358c-.163.475-.38.462-.38.72S16.725,20.729,16.684,20.865ZM67.093,15a9.2,9.2,0,0,0-3.475.665,7.711,7.711,0,0,0-1.263.611,1.358,1.358,0,0,0-.516,1.792,23.08,23.08,0,0,1,2.539,10.508v3.951a1.358,1.358,0,0,0,1.113,1.358,8.906,8.906,0,0,0,1.6.122,9.5,9.5,0,1,0,0-19.007Zm0,16.291V27.219a5.788,5.788,0,0,0-.109-1.358c-.109-.462-.1-.869-.163-1.358v-.1A5.378,5.378,0,0,0,66.6,23.3a1.358,1.358,0,0,0-.068-.326,3.652,3.652,0,0,0-.231-.977v-.231l-.285-.977a2.336,2.336,0,0,0-.1-.285c-.109-.326-.217-.652-.339-.964h0c-.081-.2-.149-.407-.244-.611a6.694,6.694,0,0,0-.3-.72.679.679,0,0,0,0-.176,6.449,6.449,0,0,1,2.05-.312,6.788,6.788,0,1,1,0,13.576Z" transform="translate(1.506 5.347)" fill="#9f14cf"/>
      <path id="Path_3" data-name="Path 3" d="M64.548,30.45a5.788,5.788,0,0,0-.109-1.358c-.109-.462-.1-.869-.163-1.358v-.1a5.378,5.378,0,0,0-.217-1.113,1.358,1.358,0,0,0-.068-.326,3.652,3.652,0,0,0-.231-.977v-.231l-.285-.977a2.336,2.336,0,0,0-.1-.285c-.109-.326-.217-.652-.339-.964h0c-.081-.2-.149-.407-.244-.611a6.694,6.694,0,0,0-.3-.72.679.679,0,0,0,0-.176c-.19-.434-.394-.855-.611-1.276s-.407-.774-.638-1.154a25.795,25.795,0,0,0-44.638,0c-.231.38-.434.76-.638,1.154s-.421.842-.611,1.276a.679.679,0,0,0-.068.176,13.47,13.47,0,0,0-.543,1.358,8.756,8.756,0,0,0-.434.869h0a1.6,1.6,0,0,1-.136.407,12.219,12.219,0,0,0-.339,1.208c-.1.326-.163.652-.231.977a1.358,1.358,0,0,0,0,.326c-.081.367-.149.747-.217,1.113v.1c-.068.421-.122.855-.163,1.358s-.1.9-.109,1.358,0,.91,0,1.358V48.506a1.358,1.358,0,0,0,2.335.95l.1-.1c.176-.19.367-.367.557-.543l.475-.434.353-.3.72-.57a25.672,25.672,0,0,1,4.2-2.539,1.358,1.358,0,0,0,.774-1.222V27.734a8.146,8.146,0,0,1,8.146-8.146,8.051,8.051,0,0,1,5.756,2.389,7.467,7.467,0,0,1,1.222,1.561,1.358,1.358,0,0,0,2.335,0,8.146,8.146,0,0,1,14.961,4.2v16.02a1.358,1.358,0,0,0,.774,1.222,23.826,23.826,0,0,1,5.05,3.218c.231.2.475.407.692.625s.353.326.516.5V49.4h.068a1.363,1.363,0,0,0,2.335-.95V31.807A9.1,9.1,0,0,0,64.548,30.45ZM60.937,44.827h-.081l-.652-.434c-.2-.136-.407-.272-.625-.394-.584-.367-1.195-.706-1.819-1.032V27.734a10.861,10.861,0,0,0-19.007-7.182c-.149-.176-.3-.339-.462-.5a10.861,10.861,0,0,0-18.545,7.684V42.912c-.625.326-1.235.665-1.819,1.032-.217.122-.421.258-.625.394l-.652.434H16.57l-.9.665V31.807a23.2,23.2,0,0,1,5.933-15.45,20.011,20.011,0,0,1,1.7-1.7A23.079,23.079,0,0,1,61.833,31.807V45.492Z" transform="translate(4.051 2.116)" fill="#c707ff"/>
      <path id="Path_4" data-name="Path 4" d="M16.551,37.66a1.548,1.548,0,0,1-.217.774h0l-.1.122a13.929,13.929,0,0,0-2.96,4.412,1.356,1.356,0,0,1-2.525-.991h0a14.16,14.16,0,0,1,1-2.036,15.911,15.911,0,0,1,2.077-2.81,5.593,5.593,0,0,1,.38-.421,1.358,1.358,0,0,1,2.335.95Zm51.264,6.15a1.36,1.36,0,0,1-1.751-.733A14,14,0,0,0,63.09,38.61h-.068v-.081h0A1.374,1.374,0,0,1,65.14,36.8a5.593,5.593,0,0,1,.38.421,15.544,15.544,0,0,1,2.539,3.6,12.788,12.788,0,0,1,.611,1.358h0A1.358,1.358,0,0,1,67.815,43.81Z" transform="translate(3.174 12.962)" fill="#2b5a31"/>
      <path id="Path_5" data-name="Path 5" d="M69.722,53.74a6.491,6.491,0,0,0-.081-.72,2,2,0,0,0,0-.394,7.981,7.981,0,0,0-.149-.8l-.136-.448a.883.883,0,0,0,0-.176,7.386,7.386,0,0,0-.394-1.168h0a12.79,12.79,0,0,0-.611-1.358,17.011,17.011,0,0,0-2.7-3.53l-.2-.231-.176-.231a19.007,19.007,0,0,0-2.335-2.064l-.9-.665h-.081l-.652-.434c-.2-.136-.407-.272-.625-.394-.584-.367-1.195-.706-1.819-1.032V24.863a10.861,10.861,0,0,0-19.007-7.182c-.149-.176-.3-.339-.462-.5a10.861,10.861,0,0,0-18.545,7.684V40.041c-.625.326-1.235.665-1.819,1.032-.217.122-.421.258-.625.394l-.652.434h-.081l-.9.665A19.007,19.007,0,0,0,14.44,44.63l-.163.217-.217.244a19.292,19.292,0,0,0-1.67,2.077c-.163.244-.312.489-.462.733a14.16,14.16,0,0,0-1,2.036h0A8.254,8.254,0,0,0,10.49,51.2a2.433,2.433,0,0,1-.136.543,4.276,4.276,0,0,0-.163.787,2,2,0,0,0-.068.394c0,.244-.068.475-.081.679s0,.692,0,1.032c0,10.481,13.4,19.007,29.868,19.007a46.5,46.5,0,0,0,7.385-.584C60.219,71.022,69.722,63.6,69.722,54.731ZM50.716,69.665a43.213,43.213,0,0,1-10.861,1.358c-14.934,0-27.152-7.3-27.152-16.291v-1.3a1.059,1.059,0,0,0,0-.19.923.923,0,0,0,0-.19,1.006,1.006,0,0,1,.109-.516A2.333,2.333,0,0,0,12.947,52a6.5,6.5,0,0,1,.339-.977A13.929,13.929,0,0,1,16.4,46.585l.1-.122h0L16.979,46l.475-.434.353-.3.72-.57a25.673,25.673,0,0,1,4.2-2.539,1.358,1.358,0,0,0,.774-1.222V24.863a8.146,8.146,0,0,1,8.146-8.146A8.051,8.051,0,0,1,37.4,19.107a7.467,7.467,0,0,1,1.222,1.561,1.358,1.358,0,0,0,2.335,0,8.146,8.146,0,0,1,15.192,4.2v16.02A1.358,1.358,0,0,0,56.92,42.1a23.826,23.826,0,0,1,5.05,3.218c.231.2.475.407.692.625l.489.462h0v.081l.068.081a14,14,0,0,1,2.973,4.439,6.123,6.123,0,0,1,.339,1.032l.136.448a1,1,0,0,0,.1.516.922.922,0,0,0,0,.19,1.06,1.06,0,0,0,0,.19h0a3.938,3.938,0,0,1,0,.462,7.647,7.647,0,0,1,.244.882C67.007,61.4,60.3,67.139,50.716,69.665Z" transform="translate(2.95 4.987)" fill="#9f14cf"/>
      <path id="Path_6" data-name="Path 6" d="M40.934,48.715H27.358a1.358,1.358,0,0,1,0-2.715H40.934a1.358,1.358,0,0,1,0,2.715Z" transform="translate(8.659 16.433)" fill="#c707ff"/>
      <circle id="Ellipse_1" data-name="Ellipse 1" cx="2.036" cy="2.036" r="2.036" transform="translate(33.301 33.923)" fill="#c707ff"/>
      <circle id="Ellipse_2" data-name="Ellipse 2" cx="2.036" cy="2.036" r="2.036" transform="translate(48.235 33.923)" fill="#c707ff"/>
      <path id="Path_7" data-name="Path 7" d="M30.715,38.715H29.358a1.358,1.358,0,1,1,0-2.715h1.358a1.358,1.358,0,0,1,0,2.715Zm6.788,0H36.146a1.358,1.358,0,1,1,0-2.715H37.5a1.358,1.358,0,0,1,0,2.715Z" transform="translate(9.374 12.856)" fill="#c707ff"/>
    </g>
  </g>
</svg>
