<svg xmlns="http://www.w3.org/2000/svg" width="86" height="86" viewBox="0 0 86 86">
  <g id="Layer_2" data-name="Layer 2" transform="translate(0.38 0.38)">
    <g id="plus-circle">
      <rect id="Rectangle_20" data-name="Rectangle 20" width="86" height="86" transform="translate(-0.38 -0.38)" fill="#fff" opacity="0"/>
      <path id="Path_5" data-name="Path 5" d="M37.517,2A35.517,35.517,0,1,0,73.034,37.517,35.517,35.517,0,0,0,37.517,2Zm0,63.93A28.413,28.413,0,1,1,65.93,37.517,28.413,28.413,0,0,1,37.517,65.93Z" transform="translate(5.103 5.103)" fill="#fff"/>
      <path id="Path_6" data-name="Path 6" d="M32.862,18.655h-7.1v-7.1a3.552,3.552,0,1,0-7.1,0v7.1h-7.1a3.552,3.552,0,1,0,0,7.1h7.1v7.1a3.552,3.552,0,1,0,7.1,0v-7.1h7.1a3.552,3.552,0,1,0,0-7.1Z" transform="translate(20.413 20.413)" fill="#fff"/>
    </g>
  </g>
</svg>
